<svg width="511" height="337" viewBox="0 0 511 337" fill="none" xmlns="http://www.w3.org/2000/svg">
<path d="M19.8142 0.243965C29.4192 -0.166035 40.0997 0.0644682 49.8102 0.0654682L101.45 0.066994L258.361 0.0559772L411.191 0.039986L461.296 0.0454791C470.561 0.0474791 479.811 0.0109767 489.086 0.167977C498.836 0.332477 507.011 6.78199 509.191 16.338C510.581 21.3345 509.786 26.63 510.121 31.6325C511.056 45.815 506.541 57.1285 491.011 60.38C480.856 60.849 467.836 60.4535 457.446 60.453H392.661L194.594 60.4525L75.9607 60.453L41.8167 60.478C38.7062 60.4815 35.4722 60.597 32.3997 60.484C23.7322 60.166 15.9482 61.6035 8.6292 56.018C-0.346304 49.168 -0.147814 40.7645 0.0631863 30.595C0.231686 22.486 -0.742791 15.1625 4.68071 8.36149C8.86671 3.13299 13.4187 1.17697 19.8142 0.243965Z" fill="white"/>
<path d="M284.645 289.115C297.65 287.445 309.535 296.655 311.16 309.67C312.79 322.68 303.535 334.535 290.515 336.115C277.565 337.69 265.78 328.49 264.16 315.54C262.545 302.595 271.7 290.775 284.645 289.115Z" fill="white"/>
<path d="M481.965 162.609C494.9 160.642 506.98 169.538 508.935 182.475C510.89 195.411 501.985 207.482 489.045 209.427C476.125 211.371 464.07 202.477 462.115 189.556C460.16 176.635 469.045 164.575 481.965 162.609Z" fill="white"/>
<path d="M285.82 225.664C298.86 224.629 310.265 234.364 311.29 247.404C312.31 260.444 302.565 271.839 289.525 272.854C276.5 273.864 265.12 264.129 264.1 251.109C263.075 238.084 272.8 226.699 285.82 225.664Z" fill="white"/>
<path d="M483.006 289.129C495.996 287.744 507.651 297.154 509.036 310.149C510.426 323.139 501.016 334.799 488.026 336.189C475.026 337.579 463.366 328.169 461.976 315.169C460.591 302.169 470.006 290.509 483.006 289.129Z" fill="white"/>
<path d="M283.775 162.664C292.175 161.251 300.68 164.459 306.055 171.064C311.43 177.669 312.84 186.653 309.75 194.587C306.66 202.521 299.54 208.182 291.115 209.41C278.285 211.279 266.34 202.475 264.33 189.666C262.32 176.858 270.99 164.817 283.775 162.664Z" fill="white"/>
<path d="M217.753 162.655C230.668 160.445 242.919 169.155 245.076 182.079C247.231 195.003 238.472 207.217 225.54 209.321C212.682 211.412 200.553 202.714 198.409 189.865C196.265 177.016 204.913 164.852 217.753 162.655Z" fill="white"/>
<path d="M219.887 225.664C232.838 224.624 244.2 234.23 245.34 247.17C246.475 260.115 236.961 271.55 224.027 272.79C210.952 274.04 199.362 264.394 198.212 251.314C197.063 238.229 206.794 226.709 219.887 225.664Z" fill="white"/>
<path d="M85.2046 226.14C97.9951 223.585 110.44 231.865 113.022 244.65C115.604 257.435 107.35 269.9 94.5711 272.51C81.7516 275.125 69.2421 266.84 66.6516 254.015C64.0611 241.19 72.3741 228.7 85.2046 226.14Z" fill="white"/>
<path d="M86.5923 162.61C99.5538 160.788 111.53 169.839 113.315 182.805C115.1 195.772 106.014 207.722 93.0428 209.47C80.1243 211.21 68.2328 202.17 66.4553 189.256C64.6773 176.342 73.6838 164.425 86.5923 162.61Z" fill="white"/>
<path d="M414.846 226.12C427.676 223.52 440.176 231.844 442.726 244.684C445.281 257.524 436.911 269.99 424.061 272.5C411.281 274.99 398.886 266.675 396.351 253.9C393.811 241.125 402.081 228.705 414.846 226.12Z" fill="white"/>
<path d="M480.871 226.134C493.696 223.559 506.171 231.884 508.716 244.714C511.261 257.539 502.906 269.994 490.071 272.509C477.281 275.014 464.876 266.694 462.341 253.909C459.806 241.124 468.096 228.699 480.871 226.134Z" fill="white"/>
<path d="M416.77 162.567C429.73 161.038 441.475 170.308 443.005 183.27C444.53 196.232 435.26 207.977 422.295 209.502C409.335 211.027 397.595 201.758 396.07 188.799C394.54 175.839 403.81 164.095 416.77 162.567Z" fill="white"/>
<path d="M219.138 289.125C232.082 287.68 243.756 296.98 245.241 309.92C246.721 322.86 237.452 334.56 224.516 336.08C211.53 337.605 199.775 328.29 198.287 315.3C196.799 302.31 206.143 290.58 219.138 289.125Z" fill="white"/>
<path d="M152.165 162.633C165.067 160.569 177.195 169.369 179.235 182.274C181.275 195.18 172.453 207.292 159.544 209.308C146.668 211.32 134.595 202.526 132.56 189.653C130.525 176.781 139.297 164.692 152.165 162.633Z" fill="white"/>
<path d="M153.258 289.179C166.131 287.734 177.771 296.919 179.351 309.779C180.93 322.634 171.861 334.369 159.02 336.079C150.596 337.199 142.219 333.714 137.082 326.944C131.944 320.174 130.837 311.169 134.184 303.354C137.53 295.544 144.813 290.134 153.258 289.179Z" fill="white"/>
<path d="M350.945 289.144C363.875 287.659 375.565 296.909 377.1 309.829C378.635 322.749 369.435 334.479 356.52 336.064C343.535 337.659 331.725 328.394 330.18 315.404C328.635 302.409 337.945 290.634 350.945 289.144Z" fill="white"/>
<path d="M86.9598 289.179C99.7763 287.619 111.471 296.634 113.221 309.429C114.97 322.219 106.126 334.049 93.3618 335.984C84.9353 337.264 76.4728 333.904 71.2173 327.194C65.9618 320.484 64.7283 311.464 67.9888 303.589C71.2498 295.714 78.4993 290.209 86.9598 289.179Z" fill="white"/>
<path d="M282.636 100.132C295.421 97.3228 308.051 105.445 310.801 118.243C313.551 131.041 305.371 143.635 292.556 146.323C279.831 148.994 267.341 140.878 264.611 128.165C261.881 115.453 269.936 102.923 282.636 100.132Z" fill="white"/>
<path d="M417.361 289.094C430.291 287.899 441.761 297.364 443.041 310.289C444.326 323.209 434.931 334.739 422.021 336.104C408.986 337.484 397.326 327.989 396.031 314.944C394.741 301.904 404.311 290.304 417.361 289.094Z" fill="white"/>
<path d="M216.94 100.096C229.719 97.4236 242.242 105.626 244.901 118.408C247.556 131.19 239.339 143.703 226.554 146.345C213.79 148.983 201.302 140.783 198.649 128.022C195.997 115.261 204.182 102.763 216.94 100.096Z" fill="white"/>
<path d="M350.54 162.601C363.525 160.862 375.44 170.025 377.095 183.019C378.755 196.014 369.515 207.873 356.51 209.448C343.62 211.008 331.89 201.87 330.25 188.991C328.61 176.113 337.67 164.324 350.54 162.601Z" fill="white"/>
<path d="M414.916 100.085C427.711 97.5441 440.146 105.864 442.676 118.664C445.211 131.464 436.881 143.891 424.076 146.414C411.291 148.935 398.876 140.616 396.346 127.829C393.816 115.042 402.126 102.624 414.916 100.085Z" fill="white"/>
<path d="M155.796 225.68C168.742 225.615 179.324 235.984 179.522 248.929C179.719 261.874 169.458 272.565 156.516 272.895C148.025 273.11 140.071 268.75 135.687 261.475C131.304 254.2 131.165 245.13 135.325 237.725C139.485 230.32 147.302 225.72 155.796 225.68Z" fill="white"/>
<path d="M150.914 100.128C163.629 97.3798 176.171 105.433 178.964 118.138C181.757 130.843 173.748 143.414 161.053 146.251C148.295 149.102 135.648 141.045 132.842 128.277C130.035 115.509 138.136 102.891 150.914 100.128Z" fill="white"/>
<path d="M480.856 100.102C493.651 97.5442 506.091 105.849 508.641 118.646C511.186 131.443 502.871 143.879 490.071 146.416C477.286 148.949 464.871 140.646 462.326 127.864C459.781 115.082 468.076 102.656 480.856 100.102Z" fill="white"/>
<path d="M85.3858 100.087C98.1433 97.6185 110.496 105.925 113.024 118.67C115.552 131.416 107.303 143.807 94.5698 146.394C81.7518 148.998 69.2608 140.684 66.7163 127.854C64.1718 115.024 72.5448 102.572 85.3858 100.087Z" fill="white"/>
<path d="M21.7372 289.14C34.6452 287.925 46.1167 297.35 47.4307 310.25C48.7447 323.145 39.4087 334.69 26.5212 336.105C13.4922 337.53 1.79517 328.07 0.467169 315.03C-0.861331 301.995 8.68819 290.37 21.7372 289.14Z" fill="white"/>
<path d="M348.946 226.169C361.766 223.564 374.261 231.884 376.796 244.724C379.331 257.559 370.941 270.009 358.091 272.474C345.341 274.924 333.006 266.609 330.491 253.869C327.971 241.134 336.216 228.754 348.946 226.169Z" fill="white"/>
<path d="M21.0461 162.589C34.0086 161.019 45.7786 170.283 47.2976 183.251C48.8166 196.22 39.5061 207.953 26.5316 209.421C13.6296 210.881 1.97563 201.634 0.465133 188.737C-1.04587 175.841 8.15563 164.15 21.0461 162.589Z" fill="white"/>
<path d="M19.6088 226.134C32.4413 223.759 44.7618 232.259 47.0943 245.099C49.4268 257.944 40.8828 270.234 28.0343 272.524C15.2478 274.799 3.02727 266.304 0.70577 253.529C-1.61523 240.749 6.83729 228.499 19.6088 226.134Z" fill="white"/>
<path d="M349.371 100.06C362.151 97.6873 374.436 106.109 376.831 118.881C379.226 131.654 370.826 143.954 358.056 146.373C345.256 148.798 332.916 140.372 330.516 127.567C328.116 114.761 336.561 102.438 349.371 100.06Z" fill="white"/>
<path d="M19.3581 100.106C32.1836 97.6008 44.5956 106.021 47.0081 118.864C49.4211 131.707 40.9116 144.058 28.0511 146.378C15.3216 148.674 3.12413 140.269 0.736127 127.557C-1.65237 114.845 6.66311 102.587 19.3581 100.106Z" fill="white"/>
</svg>
