<svg width="1137" height="1008" viewBox="0 0 1137 1008" fill="none" xmlns="http://www.w3.org/2000/svg">
<rect x="38.502" y="11.1245" width="1060" height="225.847" rx="112.923" fill="black"/>
<path d="M135.619 287.858C178.861 283.787 217.291 315.36 221.693 358.574C226.095 401.771 194.819 440.445 151.645 445.186C107.997 449.959 68.8116 418.269 64.3627 374.586C59.9121 330.921 91.9036 291.978 135.619 287.858Z" fill="black"/>
<path d="M135.619 471.281C178.861 467.211 217.291 498.784 221.693 541.998C226.095 585.195 194.819 623.869 151.645 628.609C107.997 633.383 68.8116 601.693 64.3627 558.01C59.9121 514.344 91.9036 475.402 135.619 471.281Z" fill="black"/>
<path d="M135.619 654.705C178.861 650.635 217.291 682.207 221.693 725.421C226.095 768.618 194.819 807.293 151.645 812.033C107.997 816.806 68.8116 785.116 64.3627 741.434C59.9121 697.768 91.9036 658.825 135.619 654.705Z" fill="black"/>
<path d="M135.619 838.129C178.861 834.058 217.291 865.631 221.693 908.845C226.095 952.042 194.819 990.716 151.645 995.457C107.997 1000.23 68.8116 968.54 64.3627 924.857C59.9121 881.192 91.9036 842.249 135.619 838.129Z" fill="black"/>
<path d="M305.808 287.858C349.051 283.787 387.481 315.36 391.883 358.574C396.285 401.771 365.009 440.445 321.835 445.186C278.187 449.959 239.001 418.269 234.552 374.586C230.102 330.921 262.093 291.978 305.808 287.858Z" fill="black"/>
<path d="M305.808 471.281C349.051 467.211 387.481 498.784 391.883 541.998C396.285 585.195 365.009 623.869 321.835 628.609C278.187 633.383 239.001 601.693 234.552 558.01C230.102 514.344 262.093 475.402 305.808 471.281Z" fill="black"/>
<path d="M305.808 654.705C349.051 650.635 387.481 682.207 391.883 725.421C396.285 768.618 365.009 807.293 321.835 812.033C278.187 816.806 239.001 785.116 234.552 741.434C230.102 697.768 262.093 658.825 305.808 654.705Z" fill="black"/>
<path d="M305.808 838.129C349.051 834.058 387.481 865.631 391.883 908.845C396.285 952.042 365.009 990.716 321.835 995.457C278.187 1000.23 239.001 968.54 234.552 924.857C230.102 881.192 262.093 842.249 305.808 838.129Z" fill="black"/>
<path d="M475.997 287.858C519.239 283.787 557.669 315.36 562.071 358.574C566.473 401.771 535.197 440.445 492.023 445.186C448.375 449.959 409.189 418.269 404.741 374.586C400.29 330.921 432.282 291.978 475.997 287.858Z" fill="black"/>
<path d="M475.997 471.281C519.239 467.211 557.669 498.784 562.071 541.998C566.473 585.195 535.197 623.869 492.023 628.609C448.375 633.383 409.189 601.693 404.741 558.01C400.29 514.344 432.282 475.402 475.997 471.281Z" fill="black"/>
<path d="M475.997 654.705C519.239 650.635 557.669 682.207 562.071 725.421C566.473 768.618 535.197 807.293 492.023 812.033C448.375 816.806 409.189 785.116 404.741 741.434C400.29 697.768 432.282 658.825 475.997 654.705Z" fill="black"/>
<path d="M475.997 838.129C519.239 834.058 557.669 865.631 562.071 908.845C566.473 952.042 535.197 990.716 492.023 995.457C448.375 1000.23 409.189 968.54 404.741 924.857C400.29 881.192 432.282 842.249 475.997 838.129Z" fill="black"/>
<path d="M646.186 287.858C689.429 283.787 727.859 315.36 732.261 358.574C736.663 401.771 705.387 440.445 662.213 445.186C618.565 449.959 579.379 418.269 574.93 374.586C570.48 330.921 602.471 291.978 646.186 287.858Z" fill="black"/>
<path d="M646.186 471.281C689.429 467.211 727.859 498.784 732.261 541.998C736.663 585.195 705.387 623.869 662.213 628.609C618.565 633.383 579.379 601.693 574.93 558.01C570.48 514.344 602.471 475.402 646.186 471.281Z" fill="black"/>
<path d="M646.186 654.705C689.429 650.635 727.859 682.207 732.261 725.421C736.663 768.618 705.387 807.293 662.213 812.033C618.565 816.806 579.379 785.116 574.93 741.434C570.48 697.768 602.471 658.825 646.186 654.705Z" fill="black"/>
<path d="M646.186 838.129C689.429 834.058 727.859 865.631 732.261 908.845C736.663 952.042 705.387 990.716 662.213 995.457C618.565 1000.23 579.379 968.54 574.93 924.857C570.48 881.192 602.471 842.249 646.186 838.129Z" fill="black"/>
<path d="M816.374 287.858C859.617 283.787 898.047 315.36 902.449 358.574C906.851 401.771 875.575 440.445 832.401 445.186C788.753 449.959 749.567 418.269 745.119 374.586C740.668 330.921 772.659 291.978 816.374 287.858Z" fill="black"/>
<path d="M816.374 471.281C859.617 467.211 898.047 498.784 902.449 541.998C906.851 585.195 875.575 623.869 832.401 628.609C788.753 633.383 749.567 601.693 745.119 558.01C740.668 514.344 772.659 475.402 816.374 471.281Z" fill="black"/>
<path d="M816.374 654.705C859.617 650.635 898.047 682.207 902.449 725.421C906.851 768.618 875.575 807.293 832.401 812.033C788.753 816.806 749.567 785.116 745.119 741.434C740.668 697.768 772.659 658.825 816.374 654.705Z" fill="black"/>
<path d="M816.374 838.129C859.617 834.058 898.047 865.631 902.449 908.845C906.851 952.042 875.575 990.716 832.401 995.457C788.753 1000.23 749.567 968.54 745.119 924.857C740.668 881.192 772.659 842.249 816.374 838.129Z" fill="black"/>
<path d="M986.564 287.858C1029.81 283.787 1068.24 315.36 1072.64 358.574C1077.04 401.771 1045.76 440.445 1002.59 445.186C958.943 449.959 919.757 418.269 915.308 374.586C910.857 330.921 942.849 291.978 986.564 287.858Z" fill="black"/>
<path d="M986.564 471.281C1029.81 467.211 1068.24 498.784 1072.64 541.998C1077.04 585.195 1045.76 623.869 1002.59 628.609C958.943 633.383 919.757 601.693 915.308 558.01C910.857 514.344 942.849 475.402 986.564 471.281Z" fill="black"/>
<path d="M986.564 654.705C1029.81 650.635 1068.24 682.207 1072.64 725.421C1077.04 768.618 1045.76 807.293 1002.59 812.033C958.943 816.806 919.757 785.116 915.308 741.434C910.857 697.768 942.849 658.825 986.564 654.705Z" fill="black"/>
<path d="M986.564 838.129C1029.81 834.058 1068.24 865.631 1072.64 908.845C1077.04 952.042 1045.76 990.716 1002.59 995.457C958.943 1000.23 919.757 968.54 915.308 924.857C910.857 881.192 942.849 842.249 986.564 838.129Z" fill="black"/>
</svg>
