<svg width="1137" height="1008" viewBox="0 0 1137 1008" fill="none" xmlns="http://www.w3.org/2000/svg">
<path opacity="0.9" d="M143 629C99.3695 629 64 593.63 64 550" stroke="url(#paint0_linear_124_747)" stroke-width="15" stroke-linecap="round"/>
<path opacity="0.9" d="M313 445C269.37 445 234 409.63 234 366" stroke="url(#paint1_linear_124_747)" stroke-width="15" stroke-linecap="round"/>
<path opacity="0.9" d="M143 445C99.3695 445 64 409.63 64 366" stroke="url(#paint2_linear_124_747)" stroke-width="15" stroke-linecap="round"/>
<path opacity="0.9" d="M654 446C610.37 446 575 410.63 575 367" stroke="url(#paint3_linear_124_747)" stroke-width="15" stroke-linecap="round"/>
<path opacity="0.9" d="M653 996C609.37 996 574 960.63 574 917" stroke="url(#paint4_linear_124_747)" stroke-width="15" stroke-linecap="round"/>
<path opacity="0.9" d="M824 996C780.37 996 745 960.63 745 917" stroke="url(#paint5_linear_124_747)" stroke-width="15" stroke-linecap="round"/>
<path opacity="0.9" d="M994 812C950.37 812 915 776.63 915 733" stroke="url(#paint6_linear_124_747)" stroke-width="15" stroke-linecap="round"/>
<path opacity="0.9" d="M994 996C950.37 996 915 960.63 915 917" stroke="url(#paint7_linear_124_747)" stroke-width="15" stroke-linecap="round"/>
<path opacity="0.9" d="M313 629C269.37 629 234 593.63 234 550" stroke="url(#paint8_linear_124_747)" stroke-width="15" stroke-linecap="round"/>
<path opacity="0.9" d="M483 629C439.37 629 404 593.63 404 550" stroke="url(#paint9_linear_124_747)" stroke-width="15" stroke-linecap="round"/>
<path opacity="0.9" d="M654 812C610.37 812 575 776.63 575 733" stroke="url(#paint10_linear_124_747)" stroke-width="15" stroke-linecap="round"/>
<path opacity="0.9" d="M483 813C439.37 813 404 777.63 404 734" stroke="url(#paint11_linear_124_747)" stroke-width="15" stroke-linecap="round"/>
<path opacity="0.9" d="M483 996C439.37 996 404 960.63 404 917" stroke="url(#paint12_linear_124_747)" stroke-width="15" stroke-linecap="round"/>
<path opacity="0.9" d="M313 996C269.37 996 234 960.63 234 917" stroke="url(#paint13_linear_124_747)" stroke-width="15" stroke-linecap="round"/>
<path opacity="0.9" d="M143 995C99.3695 995 64 959.63 64 916" stroke="url(#paint14_linear_124_747)" stroke-width="15" stroke-linecap="round"/>
<path opacity="0.9" d="M483 446C439.37 446 404 410.63 404 367" stroke="url(#paint15_linear_124_747)" stroke-width="15" stroke-linecap="round"/>
<path opacity="0.9" d="M654 629C610.37 629 575 593.63 575 550" stroke="url(#paint16_linear_124_747)" stroke-width="15" stroke-linecap="round"/>
<path opacity="0.9" d="M824 629C780.37 629 745 593.63 745 550" stroke="url(#paint17_linear_124_747)" stroke-width="15" stroke-linecap="round"/>
<path opacity="0.9" d="M824 446C780.37 446 745 410.63 745 367" stroke="url(#paint18_linear_124_747)" stroke-width="15" stroke-linecap="round"/>
<path opacity="0.9" d="M994 446C950.37 446 915 410.63 915 367" stroke="url(#paint19_linear_124_747)" stroke-width="15" stroke-linecap="round"/>
<path opacity="0.9" d="M994 629C950.37 629 915 593.63 915 550" stroke="url(#paint20_linear_124_747)" stroke-width="15" stroke-linecap="round"/>
<path opacity="0.9" d="M143 812C99.3695 812 64 776.63 64 733" stroke="url(#paint21_linear_124_747)" stroke-width="15" stroke-linecap="round"/>
<path opacity="0.9" d="M313 813C269.37 813 234 777.63 234 734" stroke="url(#paint22_linear_124_747)" stroke-width="15" stroke-linecap="round"/>
<path opacity="0.9" d="M824 812C780.37 812 745 776.63 745 733" stroke="url(#paint23_linear_124_747)" stroke-width="15" stroke-linecap="round"/>
<path opacity="0.33" d="M745 237L983 236.908" stroke="white" stroke-width="3" stroke-linecap="round"/>
<defs>
<linearGradient id="paint0_linear_124_747" x1="103.5" y1="550" x2="103.5" y2="629" gradientUnits="userSpaceOnUse">
<stop stop-color="white" stop-opacity="0.5"/>
<stop offset="0.495192" stop-color="white"/>
<stop offset="1" stop-color="white" stop-opacity="0.5"/>
</linearGradient>
<linearGradient id="paint1_linear_124_747" x1="273.5" y1="366" x2="273.5" y2="445" gradientUnits="userSpaceOnUse">
<stop stop-color="white" stop-opacity="0.5"/>
<stop offset="0.495192" stop-color="white"/>
<stop offset="1" stop-color="white" stop-opacity="0.5"/>
</linearGradient>
<linearGradient id="paint2_linear_124_747" x1="103.5" y1="366" x2="103.5" y2="445" gradientUnits="userSpaceOnUse">
<stop stop-color="white" stop-opacity="0.5"/>
<stop offset="0.495192" stop-color="white"/>
<stop offset="1" stop-color="white" stop-opacity="0.5"/>
</linearGradient>
<linearGradient id="paint3_linear_124_747" x1="614.5" y1="367" x2="614.5" y2="446" gradientUnits="userSpaceOnUse">
<stop stop-color="white" stop-opacity="0.5"/>
<stop offset="0.495192" stop-color="white"/>
<stop offset="1" stop-color="white" stop-opacity="0.5"/>
</linearGradient>
<linearGradient id="paint4_linear_124_747" x1="613.5" y1="917" x2="613.5" y2="996" gradientUnits="userSpaceOnUse">
<stop stop-color="white" stop-opacity="0.5"/>
<stop offset="0.495192" stop-color="white"/>
<stop offset="1" stop-color="white" stop-opacity="0.5"/>
</linearGradient>
<linearGradient id="paint5_linear_124_747" x1="784.5" y1="917" x2="784.5" y2="996" gradientUnits="userSpaceOnUse">
<stop stop-color="white" stop-opacity="0.5"/>
<stop offset="0.495192" stop-color="white"/>
<stop offset="1" stop-color="white" stop-opacity="0.5"/>
</linearGradient>
<linearGradient id="paint6_linear_124_747" x1="954.5" y1="733" x2="954.5" y2="812" gradientUnits="userSpaceOnUse">
<stop stop-color="white" stop-opacity="0.5"/>
<stop offset="0.495192" stop-color="white"/>
<stop offset="1" stop-color="white" stop-opacity="0.5"/>
</linearGradient>
<linearGradient id="paint7_linear_124_747" x1="954.5" y1="917" x2="954.5" y2="996" gradientUnits="userSpaceOnUse">
<stop stop-color="white" stop-opacity="0.5"/>
<stop offset="0.495192" stop-color="white"/>
<stop offset="1" stop-color="white" stop-opacity="0.5"/>
</linearGradient>
<linearGradient id="paint8_linear_124_747" x1="273.5" y1="550" x2="273.5" y2="629" gradientUnits="userSpaceOnUse">
<stop stop-color="white" stop-opacity="0.5"/>
<stop offset="0.495192" stop-color="white"/>
<stop offset="1" stop-color="white" stop-opacity="0.5"/>
</linearGradient>
<linearGradient id="paint9_linear_124_747" x1="443.5" y1="550" x2="443.5" y2="629" gradientUnits="userSpaceOnUse">
<stop stop-color="white" stop-opacity="0.5"/>
<stop offset="0.495192" stop-color="white"/>
<stop offset="1" stop-color="white" stop-opacity="0.5"/>
</linearGradient>
<linearGradient id="paint10_linear_124_747" x1="614.5" y1="733" x2="614.5" y2="812" gradientUnits="userSpaceOnUse">
<stop stop-color="white" stop-opacity="0.5"/>
<stop offset="0.495192" stop-color="white"/>
<stop offset="1" stop-color="white" stop-opacity="0.5"/>
</linearGradient>
<linearGradient id="paint11_linear_124_747" x1="443.5" y1="734" x2="443.5" y2="813" gradientUnits="userSpaceOnUse">
<stop stop-color="white" stop-opacity="0.5"/>
<stop offset="0.495192" stop-color="white"/>
<stop offset="1" stop-color="white" stop-opacity="0.5"/>
</linearGradient>
<linearGradient id="paint12_linear_124_747" x1="443.5" y1="917" x2="443.5" y2="996" gradientUnits="userSpaceOnUse">
<stop stop-color="white" stop-opacity="0.5"/>
<stop offset="0.495192" stop-color="white"/>
<stop offset="1" stop-color="white" stop-opacity="0.5"/>
</linearGradient>
<linearGradient id="paint13_linear_124_747" x1="273.5" y1="917" x2="273.5" y2="996" gradientUnits="userSpaceOnUse">
<stop stop-color="white" stop-opacity="0.5"/>
<stop offset="0.495192" stop-color="white"/>
<stop offset="1" stop-color="white" stop-opacity="0.5"/>
</linearGradient>
<linearGradient id="paint14_linear_124_747" x1="103.5" y1="916" x2="103.5" y2="995" gradientUnits="userSpaceOnUse">
<stop stop-color="white" stop-opacity="0.5"/>
<stop offset="0.495192" stop-color="white"/>
<stop offset="1" stop-color="white" stop-opacity="0.5"/>
</linearGradient>
<linearGradient id="paint15_linear_124_747" x1="443.5" y1="367" x2="443.5" y2="446" gradientUnits="userSpaceOnUse">
<stop stop-color="white" stop-opacity="0.5"/>
<stop offset="0.495192" stop-color="white"/>
<stop offset="1" stop-color="white" stop-opacity="0.5"/>
</linearGradient>
<linearGradient id="paint16_linear_124_747" x1="614.5" y1="550" x2="614.5" y2="629" gradientUnits="userSpaceOnUse">
<stop stop-color="white" stop-opacity="0.5"/>
<stop offset="0.495192" stop-color="white"/>
<stop offset="1" stop-color="white" stop-opacity="0.5"/>
</linearGradient>
<linearGradient id="paint17_linear_124_747" x1="784.5" y1="550" x2="784.5" y2="629" gradientUnits="userSpaceOnUse">
<stop stop-color="white" stop-opacity="0.5"/>
<stop offset="0.495192" stop-color="white"/>
<stop offset="1" stop-color="white" stop-opacity="0.5"/>
</linearGradient>
<linearGradient id="paint18_linear_124_747" x1="784.5" y1="367" x2="784.5" y2="446" gradientUnits="userSpaceOnUse">
<stop stop-color="white" stop-opacity="0.5"/>
<stop offset="0.495192" stop-color="white"/>
<stop offset="1" stop-color="white" stop-opacity="0.5"/>
</linearGradient>
<linearGradient id="paint19_linear_124_747" x1="954.5" y1="367" x2="954.5" y2="446" gradientUnits="userSpaceOnUse">
<stop stop-color="white" stop-opacity="0.5"/>
<stop offset="0.495192" stop-color="white"/>
<stop offset="1" stop-color="white" stop-opacity="0.5"/>
</linearGradient>
<linearGradient id="paint20_linear_124_747" x1="954.5" y1="550" x2="954.5" y2="629" gradientUnits="userSpaceOnUse">
<stop stop-color="white" stop-opacity="0.5"/>
<stop offset="0.495192" stop-color="white"/>
<stop offset="1" stop-color="white" stop-opacity="0.5"/>
</linearGradient>
<linearGradient id="paint21_linear_124_747" x1="103.5" y1="733" x2="103.5" y2="812" gradientUnits="userSpaceOnUse">
<stop stop-color="white" stop-opacity="0.5"/>
<stop offset="0.495192" stop-color="white"/>
<stop offset="1" stop-color="white" stop-opacity="0.5"/>
</linearGradient>
<linearGradient id="paint22_linear_124_747" x1="273.5" y1="734" x2="273.5" y2="813" gradientUnits="userSpaceOnUse">
<stop stop-color="white" stop-opacity="0.5"/>
<stop offset="0.495192" stop-color="white"/>
<stop offset="1" stop-color="white" stop-opacity="0.5"/>
</linearGradient>
<linearGradient id="paint23_linear_124_747" x1="784.5" y1="733" x2="784.5" y2="812" gradientUnits="userSpaceOnUse">
<stop stop-color="white" stop-opacity="0.5"/>
<stop offset="0.495192" stop-color="white"/>
<stop offset="1" stop-color="white" stop-opacity="0.5"/>
</linearGradient>
</defs>
</svg>
