<svg width="945" height="700" viewBox="0 0 945 700" fill="none" xmlns="http://www.w3.org/2000/svg">
<path d="M97.4967 82.3893C112.804 81.7359 129.826 82.1032 145.301 82.1048L227.599 82.1073L477.666 82.0897L721.23 82.0642L801.082 82.073C815.848 82.0762 830.59 82.018 845.371 82.2682C860.91 82.5304 873.938 92.8089 877.412 108.038C879.627 116.001 878.36 124.44 878.894 132.413C880.384 155.015 873.189 173.046 848.439 178.228C832.255 178.975 811.505 178.345 794.947 178.344H691.699L376.042 178.343L186.977 178.344L132.562 178.384C127.605 178.389 122.451 178.573 117.554 178.393C103.741 177.887 91.3355 180.177 79.6712 171.276C65.367 160.359 65.6834 146.967 66.0196 130.759C66.2882 117.836 64.7352 106.165 73.3786 95.3261C80.0498 86.9935 87.3042 83.8762 97.4967 82.3893Z" fill="black"/>
<path d="M519.556 542.76C540.282 540.098 559.223 554.776 561.813 575.518C564.411 596.252 549.661 615.145 528.911 617.663C508.273 620.174 489.491 605.512 486.91 584.873C484.336 564.243 498.926 545.405 519.556 542.76Z" fill="black"/>
<path d="M834.023 341.149C854.637 338.014 873.889 352.192 877.004 372.809C880.12 393.425 865.928 412.662 845.306 415.763C824.715 418.86 805.503 404.686 802.388 384.094C799.272 363.502 813.432 344.282 834.023 341.149Z" fill="black"/>
<path d="M521.429 441.64C542.211 439.99 560.387 455.505 562.021 476.287C563.646 497.068 548.116 515.229 527.334 516.846C506.576 518.456 488.44 502.941 486.814 482.191C485.181 461.433 500.68 443.289 521.429 441.64Z" fill="black"/>
<path d="M835.682 542.784C856.384 540.577 874.959 555.573 877.166 576.283C879.381 596.985 864.384 615.568 843.682 617.783C822.964 619.998 804.382 605.002 802.167 584.284C799.959 563.566 814.964 544.983 835.682 542.784Z" fill="black"/>
<path d="M518.17 341.237C531.557 338.985 545.112 344.097 553.678 354.624C562.244 365.15 564.491 379.468 559.566 392.112C554.642 404.757 543.295 413.779 529.868 415.735C509.421 418.715 490.384 404.683 487.181 384.27C483.978 363.857 497.795 344.668 518.17 341.237Z" fill="black"/>
<path d="M412.95 341.222C433.532 337.701 453.056 351.581 456.494 372.178C459.928 392.775 445.97 412.241 425.359 415.593C404.867 418.925 385.538 405.064 382.122 384.587C378.705 364.11 392.486 344.723 412.95 341.222Z" fill="black"/>
<path d="M416.35 441.64C436.99 439.982 455.098 455.29 456.915 475.912C458.723 496.543 443.56 514.767 422.948 516.743C402.11 518.735 383.639 503.364 381.807 482.518C379.975 461.665 395.483 443.305 416.35 441.64Z" fill="black"/>
<path d="M201.708 442.397C222.092 438.325 241.925 451.521 246.04 471.897C250.156 492.272 237.001 512.137 216.635 516.297C196.205 520.464 176.269 507.261 172.14 486.821C168.012 466.382 181.26 446.477 201.708 442.397Z" fill="black"/>
<path d="M203.921 341.151C224.577 338.247 243.664 352.671 246.509 373.336C249.354 394.001 234.873 413.046 214.201 415.831C193.613 418.605 174.661 404.197 171.828 383.616C168.995 363.036 183.348 344.043 203.921 341.151Z" fill="black"/>
<path d="M727.055 442.366C747.502 438.223 767.423 451.49 771.487 471.953C775.559 492.416 762.219 512.281 741.74 516.282C721.373 520.25 701.619 506.998 697.579 486.639C693.531 466.28 706.711 446.486 727.055 442.366Z" fill="black"/>
<path d="M832.278 442.389C852.717 438.285 872.599 451.553 876.655 472C880.711 492.439 867.395 512.288 846.94 516.296C826.557 520.289 806.787 507.029 802.747 486.654C798.707 466.278 811.919 446.477 832.278 442.389Z" fill="black"/>
<path d="M730.122 341.083C750.776 338.646 769.494 353.419 771.932 374.076C774.363 394.734 759.589 413.452 738.927 415.883C718.273 418.313 699.563 403.541 697.132 382.888C694.694 362.234 709.468 343.518 730.122 341.083Z" fill="black"/>
<path d="M415.157 542.776C435.786 540.473 454.39 555.294 456.756 575.917C459.115 596.539 444.344 615.185 423.728 617.608C403.031 620.038 384.297 605.193 381.926 584.491C379.554 563.789 394.447 545.095 415.157 542.776Z" fill="black"/>
<path d="M308.422 341.187C328.984 337.898 348.312 351.922 351.563 372.489C354.815 393.057 340.755 412.359 320.181 415.573C299.661 418.779 280.42 404.764 277.177 384.249C273.934 363.734 287.914 344.468 308.422 341.187Z" fill="black"/>
<path d="M310.165 542.863C330.681 540.56 349.231 555.199 351.749 575.694C354.266 596.18 339.813 614.882 319.348 617.608C305.923 619.393 292.572 613.838 284.385 603.049C276.196 592.26 274.433 577.909 279.766 565.454C285.099 553.007 296.706 544.385 310.165 542.863Z" fill="black"/>
<path d="M625.218 542.808C645.824 540.441 664.454 555.183 666.901 575.774C669.347 596.364 654.685 615.058 634.102 617.584C613.408 620.126 594.587 605.36 592.125 584.658C589.662 563.948 604.5 545.183 625.218 542.808Z" fill="black"/>
<path d="M204.506 542.864C224.931 540.378 243.569 554.745 246.358 575.136C249.146 595.52 235.051 614.373 214.708 617.457C201.279 619.497 187.793 614.142 179.417 603.448C171.041 592.755 169.075 578.38 174.272 565.829C179.469 553.279 191.022 544.506 204.506 542.864Z" fill="black"/>
<path d="M516.354 241.581C536.729 237.103 556.857 250.047 561.24 270.444C565.623 290.84 552.586 310.91 532.163 315.195C511.883 319.451 491.978 306.517 487.627 286.257C483.276 265.997 496.114 246.029 516.354 241.581Z" fill="black"/>
<path d="M731.063 542.728C751.669 540.823 769.949 555.907 771.989 576.506C774.037 597.096 759.064 615.472 738.49 617.647C717.716 619.846 699.133 604.714 697.069 583.925C695.014 563.143 710.265 544.656 731.063 542.728Z" fill="black"/>
<path d="M411.655 241.522C432.02 237.264 451.978 250.335 456.216 270.706C460.447 291.077 447.353 311.018 426.977 315.23C406.635 319.433 386.733 306.365 382.505 286.028C378.278 265.691 391.323 245.773 411.655 241.522Z" fill="black"/>
<path d="M624.572 341.136C645.266 338.365 664.255 352.968 666.893 373.676C669.538 394.386 654.813 413.286 634.087 415.795C613.544 418.282 594.85 403.719 592.236 383.194C589.623 362.67 604.062 343.882 624.572 341.136Z" fill="black"/>
<path d="M727.166 241.506C747.558 237.456 767.375 250.716 771.407 271.115C775.447 291.513 762.172 311.319 741.764 315.34C721.389 319.357 701.603 306.099 697.571 285.72C693.539 265.342 706.783 245.551 727.166 241.506Z" fill="black"/>
<path d="M314.211 441.665C334.842 441.561 351.707 458.087 352.022 478.718C352.337 499.348 335.983 516.385 315.358 516.911C301.826 517.253 289.15 510.305 282.163 498.711C275.177 487.117 274.957 472.662 281.586 460.861C288.216 449.059 300.674 441.728 314.211 441.665Z" fill="black"/>
<path d="M306.429 241.575C326.693 237.194 346.682 250.028 351.133 270.276C355.584 290.524 342.82 310.558 322.588 315.08C302.256 319.624 282.101 306.784 277.628 286.435C273.154 266.087 286.066 245.977 306.429 241.575Z" fill="black"/>
<path d="M832.256 241.532C852.647 237.456 872.473 250.691 876.537 271.086C880.592 291.48 867.341 311.3 846.942 315.342C826.566 319.38 806.781 306.146 802.725 285.776C798.669 265.405 811.888 245.603 832.256 241.532Z" fill="black"/>
<path d="M201.999 241.509C222.33 237.575 242.017 250.812 246.045 271.124C250.074 291.437 236.929 311.185 216.635 315.308C196.207 319.458 176.301 306.207 172.246 285.76C168.19 265.314 181.534 245.468 201.999 241.509Z" fill="black"/>
<path d="M100.561 542.8C121.133 540.864 139.415 555.885 141.509 576.443C143.603 596.994 128.724 615.393 108.186 617.648C87.4214 619.919 68.7799 604.843 66.6635 584.061C64.5463 563.287 79.7653 544.761 100.561 542.8Z" fill="black"/>
<path d="M622.032 442.445C642.463 438.293 662.376 451.553 666.416 472.016C670.456 492.471 657.085 512.312 636.606 516.241C616.287 520.145 596.629 506.894 592.62 486.59C588.604 466.294 601.744 446.564 622.032 442.445Z" fill="black"/>
<path d="M99.46 341.117C120.118 338.615 138.876 353.379 141.297 374.046C143.718 394.715 128.88 413.414 108.202 415.753C87.6403 418.08 69.0675 403.342 66.6602 382.789C64.2521 362.236 78.9165 343.605 99.46 341.117Z" fill="black"/>
<path d="M97.1694 442.389C117.62 438.604 137.256 452.15 140.973 472.613C144.69 493.084 131.074 512.67 110.597 516.32C90.2193 519.946 70.7436 506.407 67.0438 486.048C63.3448 465.68 76.8156 446.158 97.1694 442.389Z" fill="black"/>
<path d="M622.708 241.465C643.076 237.684 662.654 251.105 666.471 271.46C670.288 291.817 656.901 311.419 636.55 315.273C616.15 319.138 596.484 305.711 592.659 285.303C588.834 264.894 602.293 245.255 622.708 241.465Z" fill="black"/>
<path d="M96.7699 241.539C117.21 237.546 136.991 250.965 140.836 271.433C144.681 291.901 131.12 311.584 110.624 315.282C90.337 318.941 70.898 305.547 67.0922 285.288C63.2857 265.028 76.538 245.492 96.7699 241.539Z" fill="black"/>
</svg>
