<svg width="1180" height="707" viewBox="0 0 1180 707" fill="none" xmlns="http://www.w3.org/2000/svg">
    <g opacity="0.75" clip-path="url(#clip0_50_200)">
        <g clip-path="url(#clip1_50_200)">
            <path
                d="M1175.26 19.3125C1175.28 19.3792 1175.29 19.4479 1175.29 19.5188V30.2479C1175.29 30.5292 1175.14 30.7896 1174.89 30.9271L1165.89 36.1146V46.3938C1165.89 46.675 1165.74 46.9312 1165.5 47.0729L1146.69 57.8958C1146.65 57.9208 1146.6 57.9375 1146.55 57.9521C1146.54 57.9562 1146.52 57.9688 1146.5 57.9729C1146.37 58.0104 1146.23 58.0104 1146.1 57.9729C1146.08 57.9688 1146.06 57.9563 1146.04 57.9479C1146 57.9313 1145.95 57.9188 1145.91 57.8958L1127.11 47.0729C1126.87 46.9312 1126.72 46.675 1126.72 46.3938V14.1958C1126.72 14.1271 1126.73 14.0583 1126.75 13.9917C1126.75 13.9667 1126.77 13.9479 1126.78 13.925C1126.79 13.8833 1126.81 13.8417 1126.82 13.8042C1126.83 13.7771 1126.86 13.7583 1126.87 13.7354C1126.9 13.7021 1126.92 13.6708 1126.94 13.6417C1126.97 13.6208 1126.99 13.6042 1127.02 13.5854C1127.05 13.5604 1127.07 13.5354 1127.1 13.5146H1127.11L1136.51 8.10417C1136.75 7.96459 1137.05 7.96459 1137.29 8.10417L1146.69 13.5146H1146.69C1146.72 13.5354 1146.75 13.5583 1146.78 13.5833C1146.8 13.6021 1146.83 13.6208 1146.86 13.6396C1146.88 13.6688 1146.9 13.7 1146.92 13.7333C1146.94 13.7563 1146.97 13.7771 1146.98 13.8021C1147 13.8417 1147.01 13.8813 1147.03 13.9229C1147.03 13.9458 1147.05 13.9667 1147.05 13.9896C1147.07 14.0542 1147.08 14.1229 1147.08 14.1938V34.3021L1154.92 29.7938V19.5146C1154.92 19.4458 1154.93 19.3771 1154.95 19.3104C1154.95 19.2875 1154.96 19.2667 1154.97 19.2438C1154.99 19.2021 1155 19.1625 1155.02 19.1208C1155.04 19.0958 1155.06 19.0771 1155.07 19.0521C1155.1 19.0208 1155.12 18.9896 1155.14 18.9625C1155.17 18.9375 1155.2 18.9208 1155.22 18.9042C1155.25 18.8813 1155.27 18.8563 1155.31 18.8375L1164.71 13.425C1164.95 13.2854 1165.25 13.2854 1165.49 13.425L1174.89 18.8375C1174.93 18.8583 1174.95 18.8813 1174.98 18.9021C1175.01 18.9229 1175.03 18.9396 1175.06 18.9604C1175.08 18.9896 1175.1 19.0208 1175.13 19.0521C1175.14 19.0771 1175.17 19.0958 1175.18 19.1208C1175.2 19.1625 1175.21 19.2021 1175.23 19.2438C1175.24 19.2667 1175.25 19.2896 1175.26 19.3125ZM1173.72 29.7958V20.8729L1170.43 22.7646L1165.88 25.3813V34.3042L1173.72 29.7958ZM1164.32 45.9417V37.0104L1159.85 39.5625L1147.08 46.85V55.8625L1164.32 45.9417ZM1128.28 15.55V45.9417L1145.52 55.8625V46.85L1136.51 41.7562L1136.51 41.75H1136.5C1136.48 41.7292 1136.45 41.7062 1136.42 41.6854C1136.4 41.6646 1136.37 41.6479 1136.35 41.6292L1136.35 41.625C1136.32 41.6 1136.3 41.5729 1136.28 41.5438C1136.26 41.5187 1136.24 41.4958 1136.22 41.4667H1136.22C1136.2 41.4375 1136.19 41.4021 1136.18 41.3688C1136.16 41.3354 1136.15 41.3125 1136.14 41.2792C1136.13 41.2417 1136.13 41.2021 1136.12 41.1604C1136.12 41.1312 1136.11 41.1042 1136.11 41.075V20.0604L1131.57 17.4417L1128.28 15.55ZM1136.9 9.6875L1129.06 14.1958L1136.9 18.7042L1144.73 14.1958L1136.9 9.6875ZM1140.97 37.8229L1145.52 35.2063V15.55L1142.23 17.4438L1137.68 20.0604V39.7167L1140.97 37.8229ZM1165.1 15.0083L1157.27 19.5167L1165.1 24.0229L1172.93 19.5146L1165.1 15.0083ZM1164.32 25.3813L1159.77 22.7646L1156.48 20.8729V29.7958L1161.03 32.4125L1164.32 34.3042V25.3813ZM1146.3 45.4938L1157.79 38.9354L1163.53 35.6604L1155.7 31.1542L1146.69 36.3396L1138.48 41.0688L1146.3 45.4938Z"
                fill="#E1E1E1" />
        </g>
        <path
            d="M50.5208 43.5625C50.2952 41.7338 49.6486 39.9823 48.6319 38.4457C47.6151 36.909 46.2558 35.6291 44.6609 34.7065C43.066 33.7838 41.2788 33.2436 39.4398 33.1283C37.6009 33.0129 35.7602 33.3256 34.0625 34.0417C34.2603 35.6392 34.7699 37.1823 35.5625 38.5833C37.0151 41.0994 39.3396 42.9957 42.0962 43.9133C44.8528 44.8309 47.8501 44.7061 50.5208 43.5625Z"
            stroke="#E1E1E1" stroke-width="3.97917" stroke-miterlimit="10" />
        <path
            d="M53.0001 42.1458C55.331 40.4004 56.9407 37.8607 57.5243 35.0079C58.108 32.155 57.6249 29.1872 56.1667 26.6666C55.3629 25.2831 54.2854 24.078 53.0001 23.125C51.7148 24.078 50.6373 25.2831 49.8334 26.6666C48.3752 29.1872 47.8922 32.155 48.4758 35.0079C49.0594 37.8607 50.6692 40.4004 53.0001 42.1458Z"
            stroke="#E1E1E1" stroke-width="3.97917" stroke-miterlimit="10" />
        <path
            d="M70.4376 38.5833C71.2301 37.1823 71.7398 35.6392 71.9376 34.0417C70.2399 33.3256 68.3992 33.0129 66.5602 33.1283C64.7213 33.2436 62.9341 33.7838 61.3392 34.7065C59.7442 35.6291 58.385 36.909 57.3682 38.4457C56.3514 39.9823 55.7048 41.7338 55.4792 43.5625C58.15 44.7061 61.1473 44.8309 63.9039 43.9133C66.6605 42.9957 68.985 41.0994 70.4376 38.5833Z"
            stroke="#E1E1E1" stroke-width="3.97917" stroke-miterlimit="10" />
        <path
            d="M38.7083 56.8959C41.6099 56.9025 44.4136 55.8466 46.5899 53.9275C48.7662 52.0084 50.1645 49.3588 50.5208 46.4792C47.8549 45.3321 44.8612 45.201 42.1052 46.1107C39.3492 47.0204 37.0217 48.9079 35.5625 51.4167C34.7699 52.8177 34.2603 54.3608 34.0625 55.9584C35.5329 56.5782 37.1126 56.897 38.7083 56.8959Z"
            stroke="#E1E1E1" stroke-width="3.97917" stroke-miterlimit="10" />
        <path
            d="M53.0001 66.875C54.2854 65.922 55.3629 64.7169 56.1667 63.3333C57.6249 60.8128 58.108 57.845 57.5243 54.9921C56.9407 52.1392 55.331 49.5995 53.0001 47.8542C50.6692 49.5995 49.0594 52.1392 48.4758 54.9921C47.8922 57.845 48.3752 60.8128 49.8334 63.3333C50.6373 64.7169 51.7148 65.922 53.0001 66.875Z"
            stroke="#E1E1E1" stroke-width="3.97917" stroke-miterlimit="10" />
        <g clip-path="url(#clip2_50_200)">
            <path
                d="M114.626 125.709L106.293 133.402L114.626 142.376M135.459 125.709L143.793 133.402L135.459 142.376M129.209 117.376L120.876 150.709"
                stroke="#E1E1E1" stroke-width="4.16667" stroke-linecap="round" stroke-linejoin="round" />
        </g>
        <g clip-path="url(#clip3_50_200)">
            <path
                d="M64.8989 193.303C66.408 189.75 66.443 185.822 64.9975 182.242C63.8975 179.518 62.0259 177.224 59.5851 175.608C57.203 174.03 54.4387 173.197 51.591 173.197C50.2499 173.197 48.9275 173.383 47.6426 173.751L44.9165 167L43.4883 167.577C32.4179 172.047 27.0483 184.69 31.5186 195.761C34.2242 202.461 39.9227 207.073 46.4548 208.679V213.919H31.4786V217H64.5118V213.919H49.5356V209.204C50.2268 209.271 50.923 209.306 51.6223 209.306C54.3161 209.306 57.0552 208.799 59.7026 207.731L61.1309 207.154L58.4051 200.403C61.3157 198.856 63.5923 196.38 64.8989 193.303ZM61.4667 182.006L56.4103 184.048C55.0495 181.021 53.3073 178.163 51.468 176.279C51.509 176.279 51.55 176.278 51.591 176.278C55.7327 176.278 59.4612 178.483 61.4667 182.006ZM56.2768 194.768C56.476 197.184 56.0069 198.069 55.8529 198.196C55.6542 198.211 54.701 197.9 53.1671 196.024C51.9208 194.499 50.6931 192.433 49.6395 190.105L54.7049 188.059C55.5635 190.466 56.115 192.806 56.2768 194.768ZM41.1276 183.208C41.7524 181.737 42.6594 180.44 43.7885 179.376C43.7721 182.009 44.5036 185.278 45.6269 188.402L40.5694 190.445C39.9569 188.046 40.1434 185.526 41.1276 183.208ZM48.486 187.248C47.6275 184.841 47.0759 182.501 46.914 180.539C46.7148 178.123 47.1839 177.238 47.338 177.11C47.5372 177.096 48.4896 177.406 50.0237 179.283C51.27 180.807 52.4977 182.874 53.5513 185.202L48.486 187.248ZM46.7804 191.259C48.1411 194.286 49.8832 197.145 51.7224 199.028C51.6815 199.028 51.6406 199.03 51.5998 199.03C47.4581 199.03 43.7296 196.824 41.7241 193.301L46.7804 191.259ZM34.3754 194.607C30.7354 185.593 34.7019 175.363 43.2371 171.069L44.7856 174.904C41.875 176.451 39.5985 178.927 38.2918 182.004C36.7827 185.557 36.7477 189.486 38.1932 193.065C39.2932 195.789 41.1648 198.083 43.6056 199.699C45.9877 201.277 48.7521 202.11 51.5997 202.11C52.9409 202.11 54.2633 201.924 55.5482 201.556L57.0969 205.392C47.9737 208.229 38.0154 203.621 34.3754 194.607ZM59.4022 195.931C59.4186 193.298 58.6871 190.029 57.5639 186.905L62.6213 184.862C63.2339 187.261 63.0473 189.781 62.0631 192.099C61.4383 193.57 60.5314 194.867 59.4022 195.931Z"
                fill="#E1E1E1" />
        </g>
        <path
            d="M138.483 293.796C136.125 297.043 132.673 299.33 128.763 300.236C124.853 301.143 120.748 300.608 117.201 298.729C113.654 296.851 110.904 293.757 109.456 290.014C108.008 286.27 107.959 282.131 109.319 278.354C110.678 274.578 113.355 271.419 116.856 269.458C120.358 267.497 124.45 266.866 128.38 267.68C132.31 268.494 135.814 270.698 138.249 273.889C140.684 277.079 141.886 281.041 141.634 285.046M141.634 285.046L144.759 281.921M141.634 285.046L138.509 281.921"
            stroke="#E1E1E1" stroke-width="4.16667" stroke-linecap="round" stroke-linejoin="round" />
        <path d="M125 275.667V284L131.25 290.25" stroke="#E1E1E1" stroke-width="4.16667" stroke-linecap="round"
            stroke-linejoin="round" />
        <path
            d="M38.5001 356.083C39.6459 356.083 40.5834 355.146 40.5834 354C40.5834 352.854 39.6459 351.917 38.5001 351.917C37.3542 351.917 36.4167 352.854 36.4167 354C36.4167 355.146 37.3542 356.083 38.5001 356.083Z"
            stroke="#E1E1E1" stroke-width="4.16667" />
        <path
            d="M38.5001 343.583C39.6459 343.583 40.5834 342.646 40.5834 341.5C40.5834 340.354 39.6459 339.417 38.5001 339.417C37.3542 339.417 36.4167 340.354 36.4167 341.5C36.4167 342.646 37.3542 343.583 38.5001 343.583Z"
            stroke="#E1E1E1" stroke-width="4.16667" />
        <path
            d="M38.5001 368.583C39.6459 368.583 40.5834 367.646 40.5834 366.5C40.5834 365.354 39.6459 364.417 38.5001 364.417C37.3542 364.417 36.4167 365.354 36.4167 366.5C36.4167 367.646 37.3542 368.583 38.5001 368.583Z"
            stroke="#E1E1E1" stroke-width="4.16667" />
        <path
            d="M51.0001 356.083C52.1459 356.083 53.0834 355.146 53.0834 354C53.0834 352.854 52.1459 351.917 51.0001 351.917C49.8542 351.917 48.9167 352.854 48.9167 354C48.9167 355.146 49.8542 356.083 51.0001 356.083Z"
            stroke="#E1E1E1" stroke-width="4.16667" />
        <path
            d="M51.0001 343.583C52.1459 343.583 53.0834 342.646 53.0834 341.5C53.0834 340.354 52.1459 339.417 51.0001 339.417C49.8542 339.417 48.9167 340.354 48.9167 341.5C48.9167 342.646 49.8542 343.583 51.0001 343.583Z"
            stroke="#E1E1E1" stroke-width="4.16667" />
        <path
            d="M51.0001 368.583C52.1459 368.583 53.0834 367.646 53.0834 366.5C53.0834 365.354 52.1459 364.417 51.0001 364.417C49.8542 364.417 48.9167 365.354 48.9167 366.5C48.9167 367.646 49.8542 368.583 51.0001 368.583Z"
            stroke="#E1E1E1" stroke-width="4.16667" />
        <path
            d="M63.5001 356.083C64.6459 356.083 65.5834 355.146 65.5834 354C65.5834 352.854 64.6459 351.917 63.5001 351.917C62.3542 351.917 61.4167 352.854 61.4167 354C61.4167 355.146 62.3542 356.083 63.5001 356.083Z"
            stroke="#E1E1E1" stroke-width="4.16667" />
        <path
            d="M63.5001 343.583C64.6459 343.583 65.5834 342.646 65.5834 341.5C65.5834 340.354 64.6459 339.417 63.5001 339.417C62.3542 339.417 61.4167 340.354 61.4167 341.5C61.4167 342.646 62.3542 343.583 63.5001 343.583Z"
            stroke="#E1E1E1" stroke-width="4.16667" />
        <path
            d="M63.5001 368.583C64.6459 368.583 65.5834 367.646 65.5834 366.5C65.5834 365.354 64.6459 364.417 63.5001 364.417C62.3542 364.417 61.4167 365.354 61.4167 366.5C61.4167 367.646 62.3542 368.583 63.5001 368.583Z"
            stroke="#E1E1E1" stroke-width="4.16667" />
        <g clip-path="url(#clip4_50_200)">
            <path d="M211.091 71.9754H197.701V75.0682H211.091V71.9754Z" fill="#E1E1E1" />
            <path d="M191 47.7154V82.2846H241V47.7154H191ZM237.907 79.1919H194.093V50.8082H237.907V79.1919Z"
                fill="#E1E1E1" />
            <path d="M217.546 54.9319H214.454V75.0682H217.546V54.9319Z" fill="#E1E1E1" />
            <path d="M211.091 64.7589H197.701V67.8517H211.091V64.7589Z" fill="#E1E1E1" />
            <path d="M233.783 54.9319H224.505V64.2103H233.783V54.9319ZM230.691 61.1175H227.598V58.0247H230.691V61.1175Z"
                fill="#E1E1E1" />
        </g>
        <path
            d="M200.375 193.688C199.944 193.688 199.594 194.037 199.594 194.469V224.313C199.594 224.592 199.743 224.851 199.985 224.99L215.168 233.748C215.404 233.884 215.695 233.888 215.934 233.757L232 224.952C232.251 224.815 232.406 224.553 232.406 224.267V194.469C232.406 194.037 232.057 193.688 231.625 193.688H200.375ZM194.906 194.469C194.906 191.448 197.355 189 200.375 189H231.625C234.645 189 237.094 191.448 237.094 194.469V224.267C237.094 226.265 236.005 228.103 234.253 229.063L218.187 237.867C216.512 238.785 214.48 238.763 212.826 237.808L197.643 229.051C195.949 228.074 194.906 226.268 194.906 224.313V194.469ZM206.625 202.281C206.625 200.987 207.674 199.938 208.969 199.938H223.392C224.686 199.938 225.736 200.987 225.736 202.281C225.736 203.576 224.686 204.625 223.392 204.625H211.312V209.974H223.392C224.686 209.974 225.736 211.023 225.736 212.317V221.332C225.736 222.219 225.234 223.031 224.44 223.428L217.228 227.034C216.569 227.364 215.792 227.364 215.132 227.034L207.921 223.428C207.127 223.031 206.625 222.219 206.625 221.332V219.529C206.625 218.234 207.674 217.185 208.969 217.185C210.263 217.185 211.312 218.234 211.312 219.529V219.883L216.18 222.317L221.048 219.883V214.661H208.969C207.674 214.661 206.625 213.612 206.625 212.317V202.281Z"
            fill="#E1E1E1" />
        <g clip-path="url(#clip5_50_200)">
            <path
                d="M305.666 461H322.333M307.333 441H329C331.761 441 334 443.239 334 446C334 448.761 331.761 451 329 451H314M314 441V461M324 451H327.333C331.015 451 334 453.985 334 457.667C334 459.508 335.492 461 337.333 461H342.333M324 427.667L328.481 431.368L334.124 429.977L336.555 435.257L342.243 436.452L342.142 442.263L346.748 445.808L344.137 451L346.748 456.192L342.142 459.737L342.243 465.548L336.555 466.743L334.124 472.023L328.481 470.632L324 474.333L319.519 470.632L313.876 472.023L311.445 466.743L305.757 465.548L305.857 459.737L301.251 456.192L303.863 451L301.251 445.808L305.857 442.263L305.757 436.452L311.445 435.257L313.876 429.977L319.519 431.368L324 427.667Z"
                stroke="#E1E1E1" stroke-width="3.33333" stroke-linejoin="round" />
        </g>
        <g clip-path="url(#clip6_50_200)">
            <path
                d="M235.667 365.667V365.111C235.667 362.656 233.677 360.667 231.222 360.667H227.333C224.572 360.667 222.333 362.905 222.333 365.667C222.333 368.428 224.572 370.667 227.333 370.667H230.667C233.428 370.667 235.667 372.905 235.667 375.667C235.667 378.428 233.428 380.667 230.667 380.667H227.333C224.572 380.667 222.333 378.428 222.333 375.667M215.667 359V375.667C215.667 378.428 213.428 380.667 210.667 380.667C207.905 380.667 205.667 378.428 205.667 375.667M195.667 340.667H242.333V387.333H195.667V340.667Z"
                stroke="#E1E1E1" stroke-width="3.33333" />
        </g>
        <g clip-path="url(#clip7_50_200)">
            <path
                d="M655.667 65.6667V65.1111C655.667 62.6565 653.677 60.6667 651.222 60.6667H647.333C644.572 60.6667 642.333 62.9052 642.333 65.6667C642.333 68.4281 644.572 70.6667 647.333 70.6667H650.667C653.428 70.6667 655.667 72.9053 655.667 75.6667C655.667 78.428 653.428 80.6667 650.667 80.6667H647.333C644.572 80.6667 642.333 78.428 642.333 75.6667M635.667 59V75.6667C635.667 78.428 633.428 80.6667 630.667 80.6667C627.905 80.6667 625.667 78.428 625.667 75.6667M615.667 40.6667H662.333V87.3333H615.667V40.6667Z"
                stroke="#E1E1E1" stroke-width="3.33333" />
        </g>
        <path
            d="M320 115.25H313.75C310.298 115.25 307.5 118.048 307.5 121.5C307.5 124.952 310.298 127.75 313.75 127.75M320 115.25V127.75M320 115.25H326.25C329.702 115.25 332.5 118.048 332.5 121.5C332.5 124.952 329.702 127.75 326.25 127.75M313.75 127.75H320M313.75 127.75C310.298 127.75 307.5 130.548 307.5 134C307.5 137.452 310.298 140.25 313.75 140.25M320 127.75H326.25M320 127.75V140.25M326.25 127.75C329.702 127.75 332.5 130.548 332.5 134C332.5 137.452 329.702 140.25 326.25 140.25C322.798 140.25 320 137.452 320 134C320 130.548 322.798 127.75 326.25 127.75ZM320 140.25H313.75M320 140.25V146.5C320 149.952 317.202 152.75 313.75 152.75C310.298 152.75 307.5 149.952 307.5 146.5C307.5 143.048 310.298 140.25 313.75 140.25"
            stroke="#E1E1E1" stroke-width="4.16667" stroke-linecap="round" stroke-linejoin="round" />
        <path d="M307.333 295.5V270.5" stroke="#E1E1E1" stroke-width="3.125" stroke-linecap="round" />
        <path d="M340.667 270.5V295.5" stroke="#E1E1E1" stroke-width="3.125" stroke-linecap="round" />
        <path
            d="M324 278.833C333.205 278.833 340.667 275.102 340.667 270.5C340.667 265.898 333.205 262.167 324 262.167C314.795 262.167 307.333 265.898 307.333 270.5C307.333 275.102 314.795 278.833 324 278.833Z"
            stroke="#E1E1E1" stroke-width="3.125" />
        <path d="M340.667 283C340.667 287.602 333.205 291.333 324 291.333C314.795 291.333 307.333 287.602 307.333 283"
            stroke="#E1E1E1" stroke-width="3.125" />
        <path
            d="M340.667 295.5C340.667 300.102 333.205 303.833 324 303.833C314.795 303.833 307.333 300.102 307.333 295.5"
            stroke="#E1E1E1" stroke-width="3.125" />
        <path
            d="M35.4551 649.469C35.1926 649.536 34.9851 649.737 34.9058 649.994C34.8264 650.256 34.8875 650.537 35.0645 650.738L37.3594 654.059C34.7532 656.061 33.0625 659.222 33.0625 662.75V678.375C33.0625 679.474 33.7522 680.255 34.625 680.816V685.406C34.625 687.542 36.395 689.312 38.5312 689.312C40.6675 689.312 42.4375 687.542 42.4375 685.406V681.5H45.5625V685.406C45.5625 687.542 47.3325 689.312 49.4688 689.312C51.605 689.312 53.375 687.542 53.375 685.406V680.816C54.2478 680.255 54.9375 679.474 54.9375 678.375V662.75C54.9375 659.222 53.2468 656.061 50.6406 654.059L52.9355 650.738C53.1248 650.5 53.1614 650.171 53.0271 649.902C52.8867 649.627 52.606 649.457 52.3008 649.469C52.252 649.463 52.2031 649.463 52.1543 649.469C51.9468 649.524 51.7698 649.664 51.666 649.859L49.3223 653.18C47.7476 652.301 45.9226 651.812 44 651.812C42.0774 651.812 40.2524 652.301 38.6777 653.18L36.334 649.859C36.1997 649.627 35.9617 649.481 35.6992 649.469C35.6504 649.463 35.6016 649.463 35.5527 649.469C35.5222 649.469 35.4856 649.469 35.4551 649.469ZM44 654.937C47.7903 654.937 50.9397 657.617 51.666 661.188H36.334C37.0603 657.617 40.2097 654.937 44 654.937ZM40.875 656.5C40.0144 656.5 39.3125 657.202 39.3125 658.062C39.3125 658.923 40.0144 659.625 40.875 659.625C41.7356 659.625 42.4375 658.923 42.4375 658.062C42.4375 657.202 41.7356 656.5 40.875 656.5ZM47.125 656.5C46.2644 656.5 45.5625 657.202 45.5625 658.062C45.5625 658.923 46.2644 659.625 47.125 659.625C47.9856 659.625 48.6875 658.923 48.6875 658.062C48.6875 657.202 47.9856 656.5 47.125 656.5ZM28.375 661.188V676.812H31.5V661.188H28.375ZM56.5 661.188V676.812H59.625V661.188H56.5ZM36.1875 664.312H51.8125V678.375H50.25V685.406C50.25 685.852 49.9143 686.188 49.4688 686.188C49.0232 686.188 48.6875 685.852 48.6875 685.406V678.375H39.3125V685.406C39.3125 685.852 38.9768 686.188 38.5312 686.188C38.0857 686.188 37.75 685.852 37.75 685.406V678.375H36.1875V664.312Z"
            fill="#E1E1E1" />
        <path
            d="M136.875 590.25C139.464 590.25 141.562 592.349 141.562 594.938V607.438H154.062C156.651 607.438 158.75 609.536 158.75 612.125V623.063C158.75 625.651 156.651 627.75 154.062 627.75H125.938C123.349 627.75 121.25 625.651 121.25 623.063V594.938C121.25 592.349 123.349 590.25 125.938 590.25H136.875ZM138.438 610.563H124.375V623.063C124.375 623.925 125.075 624.625 125.938 624.625H138.435L138.438 610.563ZM154.062 610.563H141.56V624.625H154.062C154.925 624.625 155.625 623.925 155.625 623.063V612.125C155.625 611.262 154.925 610.563 154.062 610.563ZM136.875 593.375H125.938C125.075 593.375 124.375 594.075 124.375 594.938V607.438H138.438V594.938C138.438 594.075 137.738 593.375 136.875 593.375ZM152.288 588.181L152.5 588.167C153.291 588.167 153.945 588.755 154.048 589.517L154.062 589.729V594.938H159.271C160.062 594.938 160.716 595.525 160.819 596.288L160.833 596.5C160.833 597.291 160.246 597.945 159.483 598.048L159.271 598.063H154.062V603.271C154.062 604.062 153.475 604.716 152.712 604.819L152.5 604.833C151.709 604.833 151.055 604.246 150.952 603.483L150.937 603.271V598.063H145.729C144.938 598.063 144.284 597.475 144.181 596.712L144.167 596.5C144.167 595.709 144.754 595.055 145.517 594.952L145.729 594.938H150.937V589.729C150.937 588.938 151.525 588.284 152.288 588.181Z"
            fill="#E1E1E1" />
        <path
            d="M440.021 359.132C439.067 356.883 437.483 354.976 435.485 353.625C434.49 352.954 433.39 352.42 432.21 352.056C431.037 351.684 429.784 351.49 428.49 351.49C426.832 351.49 425.239 351.814 423.783 352.404C423.662 352.452 423.549 352.501 423.436 352.557C422.126 353.132 420.929 353.94 419.902 354.903C419.57 355.218 419.255 355.55 418.939 355.922C418.382 356.56 417.808 357.296 417.249 358.04C417.136 358.193 417.015 358.355 416.902 358.509C416.595 358.93 413.658 363.232 413.141 364C412.882 364.388 412.575 364.825 412.243 365.302C412.171 365.407 412.09 365.521 412.009 365.633C411.459 366.418 410.845 367.243 410.278 367.971C409.996 368.334 409.712 368.674 409.47 368.957C409.219 369.248 408.993 369.483 408.831 369.636C408.136 370.291 407.319 370.825 406.421 371.189C405.524 371.553 404.545 371.755 403.51 371.755C402.798 371.755 402.111 371.658 401.464 371.48C401.133 371.391 400.809 371.278 400.494 371.141C399.102 370.558 397.914 369.572 397.081 368.334C396.661 367.712 396.329 367.033 396.102 366.305C395.884 365.576 395.755 364.809 395.755 364C395.755 362.925 395.974 361.914 396.361 360.983C396.952 359.593 397.938 358.412 399.176 357.571C399.798 357.15 400.477 356.827 401.205 356.6C401.933 356.374 402.701 356.245 403.51 356.245C404.545 356.253 405.524 356.447 406.421 356.811C407.319 357.183 408.136 357.708 408.831 358.363C408.993 358.517 409.219 358.76 409.47 359.043C409.906 359.552 410.424 360.207 410.942 360.895C411.144 361.17 411.346 361.445 411.548 361.727C412.325 360.596 413.683 358.606 414.394 357.579C414.274 357.417 414.152 357.256 414.031 357.094C413.707 356.681 413.383 356.285 413.061 355.921C412.737 355.549 412.429 355.218 412.098 354.903C410.982 353.851 409.664 352.994 408.216 352.404C406.761 351.813 405.167 351.489 403.51 351.489C401.787 351.489 400.138 351.838 398.634 352.476C396.386 353.423 394.485 355.008 393.134 357.005C392.463 358 391.93 359.107 391.558 360.28C391.194 361.461 391 362.706 391 364C391 365.723 391.347 367.372 391.979 368.868C392.932 371.124 394.517 373.025 396.507 374.376C397.51 375.047 398.61 375.58 399.79 375.952C400.963 376.316 402.216 376.51 403.51 376.51C405.167 376.51 406.761 376.186 408.217 375.597C409.664 375.006 410.974 374.149 412.09 373.106L412.098 373.098C412.43 372.791 412.737 372.45 413.061 372.078C413.618 371.439 414.192 370.704 414.751 369.96C414.864 369.806 414.985 369.652 415.098 369.499C415.405 369.07 419.425 363.175 419.756 362.698C419.829 362.593 419.91 362.48 419.99 362.366C420.541 361.59 421.155 360.757 421.721 360.03C422.004 359.666 422.288 359.326 422.53 359.043C422.78 358.752 423.007 358.517 423.169 358.363C423.864 357.709 424.681 357.183 425.578 356.811C425.797 356.722 426.015 356.65 426.242 356.576C426.953 356.366 427.705 356.253 428.49 356.245C429.566 356.253 430.584 356.463 431.506 356.86C432.897 357.442 434.086 358.428 434.918 359.666C435.339 360.289 435.671 360.968 435.897 361.695C436.123 362.423 436.245 363.192 436.245 364C436.245 365.076 436.026 366.095 435.638 367.016C435.048 368.407 434.061 369.596 432.824 370.429C432.202 370.849 431.523 371.181 430.794 371.399C430.075 371.626 429.299 371.755 428.49 371.755C427.455 371.755 426.476 371.553 425.578 371.189C424.681 370.825 423.864 370.291 423.169 369.637C423.007 369.483 422.78 369.24 422.53 368.957C422.093 368.456 421.575 367.793 421.058 367.106C420.848 366.831 420.646 366.547 420.444 366.264C420.379 366.362 420.314 366.459 420.241 366.564C418.907 368.521 418.066 369.758 417.605 370.429C417.726 370.591 417.848 370.745 417.969 370.906C418.292 371.319 418.616 371.715 418.939 372.078C419.255 372.45 419.57 372.791 419.902 373.098C421.018 374.149 422.336 375.006 423.783 375.597C425.239 376.186 426.832 376.51 428.49 376.51C430.212 376.51 431.862 376.163 433.358 375.532C435.614 374.578 437.514 372.993 438.865 370.995C439.536 370.001 440.078 368.901 440.441 367.72C440.806 366.547 441 365.294 441 364C441 362.278 440.653 360.628 440.021 359.132Z"
            fill="#E1E1E1" />
        <path
            d="M768.021 437.132C767.067 434.883 765.483 432.976 763.485 431.625C762.49 430.954 761.39 430.42 760.21 430.056C759.037 429.684 757.784 429.49 756.49 429.49C754.832 429.49 753.239 429.814 751.783 430.404C751.662 430.452 751.549 430.501 751.436 430.557C750.126 431.132 748.929 431.94 747.902 432.903C747.57 433.218 747.255 433.55 746.939 433.922C746.382 434.56 745.808 435.296 745.249 436.04C745.136 436.193 745.015 436.355 744.902 436.509C744.595 436.93 741.658 441.232 741.141 442C740.882 442.388 740.575 442.825 740.243 443.302C740.171 443.407 740.09 443.521 740.009 443.633C739.459 444.418 738.845 445.243 738.278 445.971C737.996 446.334 737.712 446.674 737.47 446.957C737.219 447.248 736.993 447.483 736.831 447.636C736.136 448.291 735.319 448.825 734.421 449.189C733.524 449.553 732.545 449.755 731.51 449.755C730.798 449.755 730.111 449.658 729.464 449.48C729.133 449.391 728.809 449.278 728.494 449.141C727.102 448.558 725.914 447.572 725.081 446.334C724.661 445.712 724.329 445.033 724.102 444.305C723.884 443.576 723.755 442.809 723.755 442C723.755 440.925 723.974 439.914 724.361 438.983C724.952 437.593 725.938 436.412 727.176 435.571C727.798 435.15 728.477 434.827 729.205 434.6C729.933 434.374 730.701 434.245 731.51 434.245C732.545 434.253 733.524 434.447 734.421 434.811C735.319 435.183 736.136 435.708 736.831 436.363C736.993 436.517 737.219 436.76 737.47 437.043C737.906 437.552 738.424 438.207 738.942 438.895C739.144 439.17 739.346 439.445 739.548 439.727C740.325 438.596 741.683 436.606 742.394 435.579C742.274 435.417 742.152 435.256 742.031 435.094C741.707 434.681 741.383 434.285 741.061 433.921C740.737 433.549 740.429 433.218 740.098 432.903C738.982 431.851 737.664 430.994 736.216 430.404C734.761 429.813 733.167 429.489 731.51 429.489C729.787 429.489 728.138 429.838 726.634 430.476C724.386 431.423 722.485 433.008 721.134 435.005C720.463 436 719.93 437.107 719.558 438.28C719.194 439.461 719 440.706 719 442C719 443.723 719.347 445.372 719.979 446.868C720.932 449.124 722.517 451.025 724.507 452.376C725.51 453.047 726.61 453.58 727.79 453.952C728.963 454.316 730.216 454.51 731.51 454.51C733.167 454.51 734.761 454.186 736.217 453.597C737.664 453.006 738.974 452.149 740.09 451.106L740.098 451.098C740.43 450.791 740.737 450.45 741.061 450.078C741.618 449.439 742.192 448.704 742.751 447.96C742.864 447.806 742.985 447.652 743.098 447.499C743.405 447.07 747.425 441.175 747.756 440.698C747.829 440.593 747.91 440.48 747.99 440.366C748.541 439.59 749.155 438.757 749.721 438.03C750.004 437.666 750.288 437.326 750.53 437.043C750.78 436.752 751.007 436.517 751.169 436.363C751.864 435.709 752.681 435.183 753.578 434.811C753.797 434.722 754.015 434.65 754.242 434.576C754.953 434.366 755.705 434.253 756.49 434.245C757.566 434.253 758.584 434.463 759.506 434.86C760.897 435.442 762.086 436.428 762.918 437.666C763.339 438.289 763.671 438.968 763.897 439.695C764.123 440.423 764.245 441.192 764.245 442C764.245 443.076 764.026 444.095 763.638 445.016C763.048 446.407 762.061 447.596 760.824 448.429C760.202 448.849 759.523 449.181 758.794 449.399C758.075 449.626 757.299 449.755 756.49 449.755C755.455 449.755 754.476 449.553 753.578 449.189C752.681 448.825 751.864 448.291 751.169 447.637C751.007 447.483 750.78 447.24 750.53 446.957C750.093 446.456 749.575 445.793 749.058 445.106C748.848 444.831 748.646 444.547 748.444 444.264C748.379 444.362 748.314 444.459 748.241 444.564C746.907 446.521 746.066 447.758 745.605 448.429C745.726 448.591 745.848 448.745 745.969 448.906C746.292 449.319 746.616 449.715 746.939 450.078C747.255 450.45 747.57 450.791 747.902 451.098C749.018 452.149 750.336 453.006 751.783 453.597C753.239 454.186 754.832 454.51 756.49 454.51C758.212 454.51 759.862 454.163 761.358 453.532C763.614 452.578 765.514 450.993 766.865 448.995C767.536 448.001 768.078 446.901 768.441 445.72C768.806 444.547 769 443.294 769 442C769 440.278 768.653 438.628 768.021 437.132Z"
            fill="#E1E1E1" />
        <path
            d="M133 450.627C137.765 450.627 141.627 446.765 141.627 442C141.627 437.235 137.765 433.373 133 433.373C128.235 433.373 124.373 437.235 124.373 442C124.373 446.765 128.235 450.627 133 450.627Z"
            stroke="#E1E1E1" stroke-width="3.98185" />
        <path fill-rule="evenodd" clip-rule="evenodd"
            d="M134.991 423.418C134.991 422.318 134.099 421.427 133 421.427C131.9 421.427 131.009 422.318 131.009 423.418V428.752C131.659 428.655 132.324 428.605 133 428.605C133.677 428.605 134.341 428.655 134.991 428.752V423.418ZM134.991 455.249C134.341 455.346 133.677 455.396 133 455.396C132.324 455.396 131.659 455.345 131.009 455.249V460.582C131.009 461.681 131.9 462.573 133 462.573C134.099 462.573 134.991 461.681 134.991 460.582V455.249Z"
            fill="#E1E1E1" />
        <path fill-rule="evenodd" clip-rule="evenodd"
            d="M151.582 443.991C152.681 443.991 153.573 443.099 153.573 442C153.573 440.9 152.681 440.009 151.582 440.009H146.248C146.345 440.659 146.395 441.324 146.395 442C146.395 442.676 146.345 443.341 146.248 443.991H151.582ZM119.751 443.991C119.654 443.341 119.604 442.676 119.604 442C119.604 441.324 119.654 440.659 119.751 440.009H114.418C113.318 440.009 112.427 440.9 112.427 442C112.427 443.099 113.318 443.991 114.418 443.991H119.751Z"
            fill="#E1E1E1" />
        <path fill-rule="evenodd" clip-rule="evenodd"
            d="M147.548 430.268C148.325 429.491 148.325 428.23 147.548 427.453C146.77 426.675 145.509 426.675 144.732 427.453L140.96 431.224C141.488 431.615 141.994 432.05 142.472 432.528C142.95 433.007 143.385 433.512 143.776 434.04L147.548 430.268ZM125.04 452.776C124.512 452.385 124.006 451.951 123.528 451.472C123.05 450.994 122.615 450.488 122.224 449.961L118.453 453.731C117.675 454.509 117.675 455.77 118.453 456.547C119.23 457.325 120.491 457.325 121.269 456.547L125.04 452.776Z"
            fill="#E1E1E1" />
        <path fill-rule="evenodd" clip-rule="evenodd"
            d="M121.269 427.453C120.491 426.675 119.231 426.675 118.453 427.453C117.675 428.23 117.675 429.491 118.453 430.268L122.225 434.04C122.616 433.512 123.05 433.006 123.529 432.528C124.007 432.05 124.512 431.615 125.04 431.224L121.269 427.453ZM143.777 449.96C143.386 450.488 142.951 450.994 142.473 451.472C141.994 451.95 141.489 452.385 140.961 452.776L144.732 456.547C145.509 457.325 146.77 457.325 147.548 456.547C148.325 455.77 148.325 454.509 147.548 453.731L143.777 449.96Z"
            fill="#E1E1E1" />
        <path
            d="M640 222.627C644.765 222.627 648.627 218.765 648.627 214C648.627 209.235 644.765 205.373 640 205.373C635.235 205.373 631.373 209.235 631.373 214C631.373 218.765 635.235 222.627 640 222.627Z"
            stroke="#E1E1E1" stroke-width="3.98185" />
        <path fill-rule="evenodd" clip-rule="evenodd"
            d="M641.991 195.418C641.991 194.318 641.099 193.427 640 193.427C638.9 193.427 638.009 194.318 638.009 195.418V200.752C638.659 200.655 639.324 200.605 640 200.605C640.677 200.605 641.341 200.655 641.991 200.752V195.418ZM641.991 227.249C641.341 227.346 640.677 227.396 640 227.396C639.324 227.396 638.659 227.345 638.009 227.249V232.582C638.009 233.681 638.9 234.573 640 234.573C641.099 234.573 641.991 233.681 641.991 232.582V227.249Z"
            fill="#E1E1E1" />
        <path fill-rule="evenodd" clip-rule="evenodd"
            d="M658.582 215.991C659.681 215.991 660.573 215.099 660.573 214C660.573 212.9 659.681 212.009 658.582 212.009H653.248C653.345 212.659 653.395 213.324 653.395 214C653.395 214.676 653.345 215.341 653.248 215.991H658.582ZM626.751 215.991C626.654 215.341 626.604 214.676 626.604 214C626.604 213.324 626.654 212.659 626.751 212.009H621.418C620.318 212.009 619.427 212.9 619.427 214C619.427 215.099 620.318 215.991 621.418 215.991H626.751Z"
            fill="#E1E1E1" />
        <path fill-rule="evenodd" clip-rule="evenodd"
            d="M654.548 202.268C655.325 201.491 655.325 200.23 654.548 199.453C653.77 198.675 652.509 198.675 651.732 199.453L647.96 203.224C648.488 203.615 648.994 204.05 649.472 204.528C649.95 205.007 650.385 205.512 650.776 206.04L654.548 202.268ZM632.04 224.776C631.512 224.385 631.006 223.951 630.528 223.472C630.05 222.994 629.615 222.488 629.224 221.961L625.453 225.731C624.675 226.509 624.675 227.77 625.453 228.547C626.23 229.325 627.491 229.325 628.269 228.547L632.04 224.776Z"
            fill="#E1E1E1" />
        <path fill-rule="evenodd" clip-rule="evenodd"
            d="M628.269 199.453C627.491 198.675 626.231 198.675 625.453 199.453C624.675 200.23 624.675 201.491 625.453 202.268L629.225 206.04C629.616 205.512 630.05 205.006 630.529 204.528C631.007 204.05 631.512 203.615 632.04 203.224L628.269 199.453ZM650.777 221.96C650.386 222.488 649.951 222.994 649.473 223.472C648.994 223.95 648.489 224.385 647.961 224.776L651.732 228.547C652.509 229.325 653.77 229.325 654.548 228.547C655.325 227.77 655.325 226.509 654.548 225.731L650.777 221.96Z"
            fill="#E1E1E1" />
        <g clip-path="url(#clip8_50_200)">
            <path
                d="M206.417 675.25H210.583V679.417H206.417V689.833C206.417 690.938 205.978 691.998 205.196 692.78C204.415 693.561 203.355 694 202.25 694C203.355 694 204.415 694.439 205.196 695.22C205.978 696.002 206.417 697.062 206.417 698.167V708.583H210.583V712.75H206.417C204.188 712.188 202.25 710.875 202.25 708.583V700.25C202.25 699.145 201.811 698.085 201.03 697.304C200.248 696.522 199.188 696.083 198.083 696.083H196V691.917H198.083C199.188 691.917 200.248 691.478 201.03 690.696C201.811 689.915 202.25 688.855 202.25 687.75V679.417C202.25 678.312 202.689 677.252 203.47 676.47C204.252 675.689 205.312 675.25 206.417 675.25ZM235.583 675.25C236.688 675.25 237.748 675.689 238.53 676.47C239.311 677.252 239.75 678.312 239.75 679.417V687.75C239.75 688.855 240.189 689.915 240.97 690.696C241.752 691.478 242.812 691.917 243.917 691.917H246V696.083H243.917C242.812 696.083 241.752 696.522 240.97 697.304C240.189 698.085 239.75 699.145 239.75 700.25V708.583C239.75 709.688 239.311 710.748 238.53 711.53C237.748 712.311 236.688 712.75 235.583 712.75H231.417V708.583H235.583V698.167C235.583 697.062 236.022 696.002 236.804 695.22C237.585 694.439 238.645 694 239.75 694C238.645 694 237.585 693.561 236.804 692.78C236.022 691.998 235.583 690.938 235.583 689.833V679.417H231.417V675.25H235.583ZM221 700.25C221.412 700.25 221.815 700.372 222.157 700.601C222.5 700.83 222.767 701.155 222.925 701.536C223.082 701.917 223.124 702.336 223.043 702.74C222.963 703.144 222.764 703.515 222.473 703.806C222.182 704.098 221.811 704.296 221.406 704.377C221.002 704.457 220.583 704.416 220.203 704.258C219.822 704.1 219.497 703.833 219.268 703.491C219.039 703.148 218.917 702.745 218.917 702.333C218.917 701.781 219.136 701.251 219.527 700.86C219.918 700.469 220.447 700.25 221 700.25ZM212.667 700.25C213.079 700.25 213.482 700.372 213.824 700.601C214.167 700.83 214.434 701.155 214.591 701.536C214.749 701.917 214.79 702.336 214.71 702.74C214.63 703.144 214.431 703.515 214.14 703.806C213.848 704.098 213.477 704.296 213.073 704.377C212.669 704.457 212.25 704.416 211.869 704.258C211.489 704.1 211.163 703.833 210.934 703.491C210.706 703.148 210.583 702.745 210.583 702.333C210.583 701.781 210.803 701.251 211.194 700.86C211.584 700.469 212.114 700.25 212.667 700.25ZM229.333 700.25C229.745 700.25 230.148 700.372 230.491 700.601C230.833 700.83 231.1 701.155 231.258 701.536C231.416 701.917 231.457 702.336 231.377 702.74C231.296 703.144 231.098 703.515 230.806 703.806C230.515 704.098 230.144 704.296 229.74 704.377C229.336 704.457 228.917 704.416 228.536 704.258C228.155 704.1 227.83 703.833 227.601 703.491C227.372 703.148 227.25 702.745 227.25 702.333C227.25 701.781 227.469 701.251 227.86 700.86C228.251 700.469 228.781 700.25 229.333 700.25Z"
                fill="#E1E1E1" />
        </g>
        <g clip-path="url(#clip9_50_200)">
            <path
                d="M69.6667 513.667V513.111C69.6667 510.657 67.6767 508.667 65.2224 508.667H61.3334C58.572 508.667 56.3334 510.905 56.3334 513.667C56.3334 516.428 58.572 518.667 61.3334 518.667H64.6667C67.4281 518.667 69.6667 520.905 69.6667 523.667C69.6667 526.428 67.4281 528.667 64.6667 528.667H61.3334C58.572 528.667 56.3334 526.428 56.3334 523.667M54.6667 508.667H38.0001M46.3334 508.667V530.333M29.6667 488.667H76.3334V535.333H29.6667V488.667Z"
                stroke="#E1E1E1" stroke-width="3.33333" />
        </g>
        <path
            d="M399.667 516.333V514.667H398V516.333H399.667ZM406.333 509.667V508H404.667V509.667H406.333ZM419.667 503V501.333H418V503H419.667ZM426.333 503H428V501.333H426.333V503ZM439.667 523H438V524.667H439.667V523ZM401.333 523V516.333H398V523H401.333ZM408 523V509.667H404.667V523H408ZM406.333 511.333H426.333V508H406.333V511.333ZM424.667 509.667V523H428V509.667H424.667ZM414.667 523V509.667H411.333V523H414.667ZM421.333 523V503H418V523H421.333ZM419.667 504.667H426.333V501.333H419.667V504.667ZM424.667 503V509.667H428V503H424.667ZM443.787 531.333H448V528H443.787V531.333ZM431.333 514.667V516.333H434.667V514.667H431.333ZM438 519.667V523H441.333V519.667H438ZM439.667 524.667H443V521.333H439.667V524.667ZM444.667 526.333V529.667H448V526.333H444.667ZM443 524.667C443.92 524.667 444.667 525.413 444.667 526.333H448C448 523.572 445.761 521.333 443 521.333V524.667ZM436.333 518C437.254 518 438 518.746 438 519.667H441.333C441.333 516.905 439.095 514.667 436.333 514.667V518ZM408 531.333H411.333V528H408V531.333ZM426.333 521.333H399.667V524.667H426.333V521.333ZM398 523V526.333H401.333V523H398ZM416.333 544.667H418.093V541.333H416.333V544.667ZM418.093 544.667C426.375 544.667 434.055 540.699 438.862 534.165L436.177 532.19C431.991 537.879 425.304 541.333 418.093 541.333V544.667ZM398 526.333C398 536.459 406.208 544.667 416.333 544.667V541.333C408.049 541.333 401.333 534.618 401.333 526.333H398ZM399.667 518H436.333V514.667H399.667V518ZM431.333 516.333C431.333 519.095 429.095 521.333 426.333 521.333V524.667C430.936 524.667 434.667 520.936 434.667 516.333H431.333ZM443.787 528C440.587 528 437.891 529.861 436.177 532.19L438.862 534.165C440.141 532.427 441.936 531.333 443.787 531.333V528Z"
            fill="#E1E1E1" />
        <path
            d="M803.667 516.333V514.667H802V516.333H803.667ZM810.333 509.667V508H808.667V509.667H810.333ZM823.667 503V501.333H822V503H823.667ZM830.333 503H832V501.333H830.333V503ZM843.667 523H842V524.667H843.667V523ZM805.333 523V516.333H802V523H805.333ZM812 523V509.667H808.667V523H812ZM810.333 511.333H830.333V508H810.333V511.333ZM828.667 509.667V523H832V509.667H828.667ZM818.667 523V509.667H815.333V523H818.667ZM825.333 523V503H822V523H825.333ZM823.667 504.667H830.333V501.333H823.667V504.667ZM828.667 503V509.667H832V503H828.667ZM847.787 531.333H852V528H847.787V531.333ZM835.333 514.667V516.333H838.667V514.667H835.333ZM842 519.667V523H845.333V519.667H842ZM843.667 524.667H847V521.333H843.667V524.667ZM848.667 526.333V529.667H852V526.333H848.667ZM847 524.667C847.92 524.667 848.667 525.413 848.667 526.333H852C852 523.572 849.761 521.333 847 521.333V524.667ZM840.333 518C841.254 518 842 518.746 842 519.667H845.333C845.333 516.905 843.095 514.667 840.333 514.667V518ZM812 531.333H815.333V528H812V531.333ZM830.333 521.333H803.667V524.667H830.333V521.333ZM802 523V526.333H805.333V523H802ZM820.333 544.667H822.093V541.333H820.333V544.667ZM822.093 544.667C830.375 544.667 838.055 540.699 842.862 534.165L840.177 532.19C835.991 537.879 829.304 541.333 822.093 541.333V544.667ZM802 526.333C802 536.459 810.208 544.667 820.333 544.667V541.333C812.049 541.333 805.333 534.618 805.333 526.333H802ZM803.667 518H840.333V514.667H803.667V518ZM835.333 516.333C835.333 519.095 833.095 521.333 830.333 521.333V524.667C834.936 524.667 838.667 520.936 838.667 516.333H835.333ZM847.787 528C844.587 528 841.891 529.861 840.177 532.19L842.862 534.165C844.141 532.427 845.936 531.333 847.787 531.333V528Z"
            fill="#E1E1E1" />
        <path
            d="M820.834 380.59C821.712 380.313 822.2 379.377 821.923 378.499C821.647 377.621 820.711 377.134 819.833 377.41L820.834 380.59ZM808.673 370.721L807.061 370.298L806.215 373.522L807.827 373.945L808.673 370.721ZM832 387.333V389H835.333V387.333H832ZM832.208 371.292L832.03 369.635C831.391 369.703 830.849 370.133 830.636 370.74C830.423 371.346 830.578 372.021 831.034 372.474L832.208 371.292ZM843.667 358.708H845.333V358.703L843.667 358.708ZM840.89 352.021L839.336 351.417C839.097 352.032 839.244 352.73 839.709 353.198L840.89 352.021ZM840.723 345.298L842.245 344.618C842.044 344.169 841.654 343.831 841.181 343.695L840.723 345.298ZM833.481 347.938L833.061 349.55C833.513 349.668 833.993 349.591 834.386 349.338L833.481 347.938ZM820.519 347.938L819.615 349.338C820.007 349.591 820.487 349.668 820.939 349.55L820.519 347.938ZM813.277 345.298L812.819 343.696C812.346 343.831 811.956 344.169 811.755 344.618L813.277 345.298ZM813.111 352.021L814.291 353.198C814.757 352.731 814.903 352.033 814.664 351.417L813.111 352.021ZM810.333 358.763H812V358.758L810.333 358.763ZM821.792 371.292L822.968 372.472C823.421 372.021 823.576 371.352 823.367 370.748C823.159 370.144 822.624 369.713 821.99 369.637L821.792 371.292ZM820.333 375.667H822C822 375.626 821.999 375.585 821.996 375.545L820.333 375.667ZM818.667 387.333V389H822V387.333H818.667ZM819.833 377.41C817.823 378.043 816.548 377.973 815.703 377.694C814.863 377.417 814.219 376.859 813.605 376.058C813.294 375.653 813.007 375.208 812.706 374.72C812.42 374.257 812.096 373.714 811.768 373.231C811.132 372.293 810.194 371.121 808.673 370.721L807.827 373.945C808.092 374.015 808.44 374.262 809.009 375.101C809.284 375.507 809.543 375.942 809.87 376.472C810.183 376.979 810.542 377.542 810.96 378.087C811.804 379.188 812.953 380.297 814.658 380.859C816.358 381.42 818.38 381.363 820.834 380.59L819.833 377.41ZM835.333 375.458C835.333 374.4 835.287 373.434 834.987 372.532C834.667 371.572 834.114 370.836 833.383 370.109L831.034 372.474C831.55 372.987 831.727 373.293 831.824 373.585C831.941 373.936 832 374.433 832 375.458H835.333ZM832.387 372.949C835.396 372.625 838.68 371.866 841.209 369.677C843.81 367.426 845.333 363.915 845.333 358.708H842C842 363.239 840.702 365.708 839.027 367.157C837.28 368.669 834.835 369.333 832.03 369.635L832.387 372.949ZM845.333 358.703C845.324 355.756 844.151 352.931 842.07 350.844L839.709 353.198C841.17 354.663 841.993 356.645 842 358.714L845.333 358.703ZM842.443 352.624C842.941 351.343 843.18 349.976 843.145 348.601L839.813 348.684C839.836 349.618 839.674 350.547 839.336 351.417L842.443 352.624ZM843.145 348.601C843.111 347.227 842.805 345.873 842.245 344.618L839.201 345.978C839.582 346.83 839.79 347.75 839.813 348.684L843.145 348.601ZM840.723 345.298C841.181 343.695 841.181 343.695 841.181 343.695L841.174 343.694C841.172 343.693 841.17 343.692 841.168 343.692C841.163 343.691 841.159 343.689 841.154 343.688C841.145 343.685 841.135 343.683 841.124 343.68C841.103 343.675 841.08 343.669 841.054 343.664C841.002 343.652 840.942 343.641 840.872 343.63C840.733 343.609 840.558 343.591 840.347 343.585C839.923 343.574 839.36 343.612 838.649 343.764C837.23 344.067 835.233 344.822 832.577 346.538L834.386 349.338C836.783 347.789 838.407 347.224 839.346 347.023C839.814 346.923 840.113 346.913 840.258 346.917C840.33 346.919 840.366 346.925 840.366 346.925C840.366 346.925 840.357 346.923 840.34 346.92C840.332 346.918 840.321 346.915 840.309 346.912C840.303 346.911 840.296 346.909 840.288 346.907C840.285 346.906 840.281 346.905 840.277 346.904C840.277 346.904 840.273 346.903 840.271 346.902L840.268 346.901C840.268 346.901 840.265 346.9 840.723 345.298ZM833.902 346.325C829.376 345.145 824.624 345.145 820.098 346.325L820.939 349.55C824.913 348.514 829.087 348.514 833.061 349.55L833.902 346.325ZM821.423 346.537C818.766 344.822 816.769 344.067 815.35 343.764C814.64 343.612 814.077 343.574 813.653 343.585C813.442 343.591 813.267 343.609 813.128 343.63C813.058 343.641 812.997 343.652 812.946 343.664C812.92 343.669 812.897 343.675 812.876 343.68C812.865 343.683 812.855 343.686 812.846 343.688C812.841 343.689 812.836 343.691 812.832 343.692C812.83 343.692 812.827 343.693 812.825 343.694C812.825 343.694 812.819 343.696 813.277 345.298C813.735 346.9 813.732 346.901 813.732 346.901C813.73 346.902 813.725 346.903 813.723 346.904C813.719 346.905 813.716 346.906 813.712 346.907C813.705 346.909 813.698 346.911 813.692 346.912C813.679 346.915 813.668 346.918 813.66 346.92C813.678 346.918 813.706 346.918 813.742 346.917C813.886 346.914 814.186 346.923 814.654 347.023C815.592 347.224 817.216 347.789 819.615 349.338L821.423 346.537ZM811.755 344.618C811.195 345.873 810.889 347.227 810.855 348.601L814.187 348.684C814.21 347.75 814.418 346.83 814.799 345.978L811.755 344.618ZM810.855 348.601C810.821 349.976 811.059 351.343 811.557 352.624L814.664 351.417C814.326 350.547 814.164 349.618 814.187 348.684L810.855 348.601ZM811.93 350.844C810.892 351.885 810.069 353.121 809.509 354.48L812.591 355.75C812.985 354.796 813.562 353.928 814.291 353.198L811.93 350.844ZM809.509 354.48C808.949 355.84 808.663 357.296 808.667 358.767L812 358.758C811.997 357.726 812.198 356.704 812.591 355.75L809.509 354.48ZM808.667 358.763C808.667 363.939 810.194 367.419 812.796 369.655C815.32 371.824 818.598 372.588 821.594 372.947L821.99 369.637C819.171 369.299 816.72 368.632 814.968 367.127C813.295 365.689 812 363.253 812 358.763H808.667ZM820.615 370.111C818.95 371.771 818.521 373.745 818.671 375.789L821.996 375.545C821.896 374.184 822.171 373.267 822.968 372.472L820.615 370.111ZM818.667 375.667V387.333H822V375.667H818.667ZM835.333 387.333V382.333H832V387.333H835.333ZM835.333 382.333V375.458H832V382.333H835.333Z"
            fill="#E1E1E1" />
        <path
            d="M339.333 6.27957C339.333 11.8024 328.887 16.2797 316 16.2797C303.113 16.2797 292.667 11.8024 292.667 6.27957C292.667 0.756701 303.113 -3.72043 316 -3.72043C328.887 -3.72043 339.333 0.756701 339.333 6.27957Z"
            stroke="#E1E1E1" stroke-width="3.33333" />
        <path
            d="M304.886 26.7963C309.742 29.427 318.655 22.3737 324.793 11.0426C330.93 -0.288501 331.969 -11.6066 327.113 -14.2371C322.257 -16.8675 313.345 -9.81433 307.207 1.51673C301.069 12.8478 300.03 24.166 304.886 26.7963Z"
            stroke="#E1E1E1" stroke-width="3.33333" />
        <path
            d="M327.113 26.7963C322.257 29.427 313.345 22.3737 307.207 11.0426C301.069 -0.288501 300.03 -11.6066 304.886 -14.2371C309.743 -16.8675 318.655 -9.81433 324.793 1.51673C330.931 12.8478 331.969 24.166 327.113 26.7963Z"
            stroke="#E1E1E1" stroke-width="3.33333" />
        <path
            d="M312.667 6.27957C312.667 8.1205 314.159 9.6129 316 9.6129C317.841 9.6129 319.333 8.1205 319.333 6.27957C319.333 4.4386 317.841 2.94624 316 2.94624C314.159 2.94624 312.667 4.4386 312.667 6.27957Z"
            stroke="#E1E1E1" stroke-width="3.33333" />
        <path
            d="M321.333 578.667H324.667M316.333 583.667V575.333C316.333 573.492 317.826 572 319.667 572H333C334.841 572 336.333 573.492 336.333 575.333V592C336.333 593.841 334.841 595.333 333 595.333H319.667C317.826 595.333 316.333 596.826 316.333 598.667V615.333C316.333 617.174 317.826 618.667 319.667 618.667H333C334.841 618.667 336.333 617.174 336.333 615.333V607M328 585.333H306.333C304.492 585.333 303 586.826 303 588.667V605.333C303 607.174 304.492 608.667 306.333 608.667H316.333M324.667 605.333H346.333C348.174 605.333 349.667 603.841 349.667 602V585.333C349.667 583.492 348.174 582 346.333 582H336.333M328 612H331.333"
            stroke="#E1E1E1" stroke-width="3.33333" />
        <path
            d="M821.333 195.667H824.667M816.333 200.667V192.333C816.333 190.492 817.826 189 819.667 189H833C834.841 189 836.333 190.492 836.333 192.333V209C836.333 210.841 834.841 212.333 833 212.333H819.667C817.826 212.333 816.333 213.826 816.333 215.667V232.333C816.333 234.174 817.826 235.667 819.667 235.667H833C834.841 235.667 836.333 234.174 836.333 232.333V224M828 202.333H806.333C804.492 202.333 803 203.826 803 205.667V222.333C803 224.174 804.492 225.667 806.333 225.667H816.333M824.667 222.333H846.333C848.174 222.333 849.667 220.841 849.667 219V202.333C849.667 200.492 848.174 199 846.333 199H836.333M828 229H831.333"
            stroke="#E1E1E1" stroke-width="3.33333" />
        <path
            d="M223.085 527.856L206.124 538.454M216.017 532.272C210.553 535.686 203.355 534.025 199.941 528.56C196.527 523.096 198.188 515.899 203.653 512.484L217.787 503.652C223.251 500.238 230.449 501.899 233.863 507.364C236.765 512.008 236 517.905 232.35 521.667M216.12 517.652C221.584 514.238 228.782 515.9 232.196 521.364C235.611 526.828 233.949 534.026 228.485 537.44L214.351 546.272C208.886 549.687 201.689 548.025 198.274 542.561C195.391 537.947 196.127 532.098 199.715 528.333M209.053 522.068L226.014 511.47"
            stroke="#E1E1E1" stroke-width="3.33333" />
        <path
            d="M751.085 136.856L734.124 147.454M744.017 141.272C738.553 144.686 731.355 143.025 727.941 137.56C724.527 132.096 726.188 124.899 731.653 121.484L745.787 112.652C751.251 109.238 758.449 110.899 761.863 116.364C764.765 121.008 764 126.905 760.35 130.667M744.12 126.652C749.584 123.238 756.782 124.9 760.196 130.364C763.611 135.828 761.949 143.026 756.485 146.44L742.351 155.272C736.886 158.687 729.689 157.025 726.274 151.561C723.391 146.947 724.127 141.098 727.715 137.333M737.053 131.068L754.014 120.47"
            stroke="#E1E1E1" stroke-width="3.33333" />
        <g clip-path="url(#clip10_50_200)">
            <path
                d="M439 200.667H440.667V199.976L440.179 199.488L439 200.667ZM429 190.667L430.179 189.488L429.69 189H429V190.667ZM402.333 210.667V209H400.667V210.667H402.333ZM402.333 217.333H400.667V219H402.333V217.333ZM409 217.333H410.667V215.667H409V217.333ZM409 224V225.667H410.667V224H409ZM415.667 220.667H414V221.357L414.488 221.845L415.667 220.667ZM419 224L417.821 225.179L419 226.357L420.178 225.179L419 224ZM422.333 220.667L423.512 221.845L424 221.357V220.667H422.333ZM429 210.667V209H427.333V210.667H429ZM429 224H427.333V225.667H429V224ZM435.667 224V225.667H437.333V224H435.667ZM400.667 205.667V194H397.333V205.667H400.667ZM437.333 200.667V205.667H440.667V200.667H437.333ZM402.333 192.333H429V189H402.333V192.333ZM427.821 191.845L437.821 201.845L440.179 199.488L430.179 189.488L427.821 191.845ZM400.667 194C400.667 193.08 401.413 192.333 402.333 192.333V189C399.572 189 397.333 191.239 397.333 194H400.667ZM397.333 229V234H400.667V229H397.333ZM402.333 239H435.667V235.667H402.333V239ZM440.667 234V229H437.333V234H440.667ZM435.667 239C438.428 239 440.667 236.761 440.667 234H437.333C437.333 234.92 436.587 235.667 435.667 235.667V239ZM397.333 234C397.333 236.761 399.572 239 402.333 239V235.667C401.413 235.667 400.667 234.92 400.667 234H397.333ZM410.667 209H402.333V212.333H410.667V209ZM400.667 210.667V217.333H404V210.667H400.667ZM402.333 219H409V215.667H402.333V219ZM407.333 217.333V224H410.667V217.333H407.333ZM409 222.333H400.667V225.667H409V222.333ZM414 209V220.667H417.333V209H414ZM414.488 221.845L417.821 225.179L420.178 222.821L416.845 219.488L414.488 221.845ZM420.178 225.179L423.512 221.845L421.155 219.488L417.821 222.821L420.178 225.179ZM424 220.667V209H420.667V220.667H424ZM437.333 209H429V212.333H437.333V209ZM427.333 210.667V224H430.667V210.667H427.333ZM429 225.667H435.667V222.333H429V225.667ZM437.333 224V217.333H434V224H437.333Z"
                fill="#E1E1E1" />
        </g>
        <g clip-path="url(#clip11_50_200)">
            <path
                d="M953 576.667H954.667V575.976L954.179 575.488L953 576.667ZM943 566.667L944.179 565.488L943.69 565H943V566.667ZM916.333 586.667V585H914.667V586.667H916.333ZM916.333 593.333H914.667V595H916.333V593.333ZM923 593.333H924.667V591.667H923V593.333ZM923 600V601.667H924.667V600H923ZM929.667 596.667H928V597.357L928.488 597.845L929.667 596.667ZM933 600L931.821 601.179L933 602.357L934.178 601.179L933 600ZM936.333 596.667L937.512 597.845L938 597.357V596.667H936.333ZM943 586.667V585H941.333V586.667H943ZM943 600H941.333V601.667H943V600ZM949.667 600V601.667H951.333V600H949.667ZM914.667 581.667V570H911.333V581.667H914.667ZM951.333 576.667V581.667H954.667V576.667H951.333ZM916.333 568.333H943V565H916.333V568.333ZM941.821 567.845L951.821 577.845L954.179 575.488L944.179 565.488L941.821 567.845ZM914.667 570C914.667 569.08 915.413 568.333 916.333 568.333V565C913.572 565 911.333 567.239 911.333 570H914.667ZM911.333 605V610H914.667V605H911.333ZM916.333 615H949.667V611.667H916.333V615ZM954.667 610V605H951.333V610H954.667ZM949.667 615C952.428 615 954.667 612.761 954.667 610H951.333C951.333 610.92 950.587 611.667 949.667 611.667V615ZM911.333 610C911.333 612.761 913.572 615 916.333 615V611.667C915.413 611.667 914.667 610.92 914.667 610H911.333ZM924.667 585H916.333V588.333H924.667V585ZM914.667 586.667V593.333H918V586.667H914.667ZM916.333 595H923V591.667H916.333V595ZM921.333 593.333V600H924.667V593.333H921.333ZM923 598.333H914.667V601.667H923V598.333ZM928 585V596.667H931.333V585H928ZM928.488 597.845L931.821 601.179L934.178 598.821L930.845 595.488L928.488 597.845ZM934.178 601.179L937.512 597.845L935.155 595.488L931.821 598.821L934.178 601.179ZM938 596.667V585H934.667V596.667H938ZM951.333 585H943V588.333H951.333V585ZM941.333 586.667V600H944.667V586.667H941.333ZM943 601.667H949.667V598.333H943V601.667ZM951.333 600V593.333H948V600H951.333Z"
                fill="#E1E1E1" />
        </g>
        <path
            d="M519.786 125.048C519.444 125.902 519.86 126.872 520.714 127.214C521.569 127.556 522.539 127.14 522.881 126.286L519.786 125.048ZM553.119 126.286C553.461 127.14 554.431 127.556 555.286 127.214C556.14 126.872 556.556 125.902 556.214 125.048L553.119 126.286ZM559.667 128.55V139.701H563V128.55H559.667ZM550.367 149H548.56V152.333H550.367V149ZM527.44 149H525.633V152.333H527.44V149ZM516.333 139.701V128.55H513V139.701H516.333ZM516.295 128.602C530.481 124.548 545.519 124.548 559.705 128.602L560.621 125.396C545.836 121.172 530.164 121.172 515.379 125.396L516.295 128.602ZM525.633 149C520.497 149 516.333 144.836 516.333 139.701H513C513 146.677 518.656 152.333 525.633 152.333V149ZM526.805 149.377C526.932 149.145 527.175 149 527.44 149V152.333C528.395 152.333 529.274 151.812 529.731 150.973L526.805 149.377ZM529.731 150.973C533.301 144.428 542.699 144.428 546.269 150.973L549.195 149.377C544.362 140.516 531.638 140.516 526.805 149.377L529.731 150.973ZM548.56 149C548.825 149 549.068 149.145 549.195 149.377L546.269 150.973C546.726 151.812 547.605 152.333 548.56 152.333V149ZM559.667 139.701C559.667 144.836 555.503 149 550.367 149V152.333C557.344 152.333 563 146.677 563 139.701H559.667ZM563 128.55C563 127.086 562.029 125.799 560.621 125.396L559.705 128.602C559.682 128.595 559.667 128.574 559.667 128.55H563ZM516.333 128.55C516.333 128.574 516.318 128.595 516.295 128.602L515.379 125.396C513.971 125.799 513 127.086 513 128.55H516.333ZM521.443 120.905L519.786 125.048L522.881 126.286L524.538 122.143L521.443 120.905ZM551.462 122.143L553.119 126.286L556.214 125.048L554.557 120.905L551.462 122.143ZM529.18 119H546.82V115.667H529.18V119ZM554.557 120.905C553.292 117.741 550.227 115.667 546.82 115.667V119C548.864 119 550.703 120.245 551.462 122.143L554.557 120.905ZM524.538 122.143C525.297 120.245 527.136 119 529.18 119V115.667C525.773 115.667 522.708 117.741 521.443 120.905L524.538 122.143Z"
            fill="#E1E1E1" />
        <g clip-path="url(#clip12_50_200)">
            <path
                d="M523 313.333V315H526.333V313.333H523ZM549.667 313.333V315H553V313.333H549.667ZM526.333 313.333V311.666H523V313.333H526.333ZM534.667 303.333H541.333V300H534.667V303.333ZM549.667 311.666V313.333H553V311.666H549.667ZM541.333 303.333C545.936 303.333 549.667 307.064 549.667 311.666H553C553 305.223 547.777 300 541.333 300V303.333ZM526.333 311.666C526.333 307.064 530.064 303.333 534.667 303.333V300C528.223 300 523 305.223 523 311.666H526.333ZM538 280C533.398 280 529.667 283.731 529.667 288.333H533C533 285.572 535.239 283.333 538 283.333V280ZM546.333 288.333C546.333 283.731 542.602 280 538 280V283.333C540.761 283.333 543 285.572 543 288.333H546.333ZM538 296.667C542.602 296.667 546.333 292.936 546.333 288.333H543C543 291.095 540.761 293.333 538 293.333V296.667ZM538 293.333C535.239 293.333 533 291.095 533 288.333H529.667C529.667 292.936 533.398 296.667 538 296.667V293.333ZM538 316.667C526.034 316.667 516.333 306.966 516.333 295H513C513 308.807 524.193 320 538 320V316.667ZM559.667 295C559.667 306.966 549.966 316.667 538 316.667V320C551.807 320 563 308.807 563 295H559.667ZM538 273.333C549.966 273.333 559.667 283.034 559.667 295H563C563 281.193 551.807 270 538 270V273.333ZM538 270C524.193 270 513 281.193 513 295H516.333C516.333 283.034 526.034 273.333 538 273.333V270Z"
                fill="#E1E1E1" />
        </g>
        <path
            d="M416 87L414.56 87.8397C414.859 88.3517 415.407 88.6667 416 88.6667C416.593 88.6667 417.141 88.3517 417.44 87.8397L416 87ZM429.333 47L430.78 47.8269C431.075 47.3111 431.073 46.6773 430.775 46.1635C430.477 45.6496 429.927 45.3333 429.333 45.3333V47ZM416 70.3333L414.553 71.1602C414.85 71.6795 415.402 72 416 72C416.598 72 417.15 71.6795 417.447 71.1602L416 70.3333ZM402.667 47V45.3333C402.073 45.3333 401.523 45.6496 401.225 46.1635C400.927 46.6773 400.925 47.3111 401.22 47.8269L402.667 47ZM412.667 47L414.157 46.2546L413.697 45.3333H412.667V47ZM416 53.6667L414.509 54.412C414.792 54.9767 415.369 55.3333 416 55.3333C416.631 55.3333 417.208 54.9767 417.491 54.412L416 53.6667ZM419.333 47V45.3333H418.303L417.843 46.2546L419.333 47ZM391.227 47.8398L414.56 87.8397L417.44 86.1603L394.106 46.1602L391.227 47.8398ZM417.44 87.8397L440.773 47.8398L437.894 46.1602L414.56 86.1603L417.44 87.8397ZM427.886 46.1731L414.553 69.5064L417.447 71.1602L430.78 47.8269L427.886 46.1731ZM417.447 69.5064L404.114 46.1731L401.22 47.8269L414.553 71.1602L417.447 69.5064ZM402.667 48.6667H412.667V45.3333H402.667V48.6667ZM411.176 47.7454L414.509 54.412L417.491 52.9213L414.157 46.2546L411.176 47.7454ZM417.491 54.412L420.824 47.7454L417.843 46.2546L414.509 52.9213L417.491 54.412ZM419.333 48.6667H429.333V45.3333H419.333V48.6667Z"
            fill="#E1E1E1" />
        <path
            d="M743 315L741.56 315.84C741.859 316.352 742.407 316.667 743 316.667C743.593 316.667 744.141 316.352 744.44 315.84L743 315ZM756.333 275L757.78 275.827C758.075 275.311 758.073 274.677 757.775 274.163C757.477 273.65 756.927 273.333 756.333 273.333V275ZM743 298.333L741.553 299.16C741.85 299.68 742.402 300 743 300C743.598 300 744.15 299.68 744.447 299.16L743 298.333ZM729.667 275V273.333C729.073 273.333 728.523 273.65 728.225 274.163C727.927 274.677 727.925 275.311 728.22 275.827L729.667 275ZM739.667 275L741.157 274.255L740.697 273.333H739.667V275ZM743 281.667L741.509 282.412C741.792 282.977 742.369 283.333 743 283.333C743.631 283.333 744.208 282.977 744.491 282.412L743 281.667ZM746.333 275V273.333H745.303L744.843 274.255L746.333 275ZM718.227 275.84L741.56 315.84L744.44 314.16L721.106 274.16L718.227 275.84ZM744.44 315.84L767.773 275.84L764.894 274.16L741.56 314.16L744.44 315.84ZM754.886 274.173L741.553 297.506L744.447 299.16L757.78 275.827L754.886 274.173ZM744.447 297.506L731.114 274.173L728.22 275.827L741.553 299.16L744.447 297.506ZM729.667 276.667H739.667V273.333H729.667V276.667ZM738.176 275.745L741.509 282.412L744.491 280.921L741.157 274.255L738.176 275.745ZM744.491 282.412L747.824 275.745L744.843 274.255L741.509 280.921L744.491 282.412ZM746.333 276.667H756.333V273.333H746.333V276.667Z"
            fill="#E1E1E1" />
        <g clip-path="url(#clip13_50_200)">
            <path
                d="M526.333 475.333H549.667M538 475.333V458.667M538 458.667C545.364 458.667 551.333 452.697 551.333 445.333V432C551.333 430.159 549.841 428.667 548 428.667H528C526.159 428.667 524.667 430.159 524.667 432V445.333C524.667 452.697 530.636 458.667 538 458.667ZM524.667 435.333H521.333C517.652 435.333 514.667 438.318 514.667 442C514.667 445.682 517.652 448.667 521.333 448.667H524.667M551.333 435.333H554.667C558.349 435.333 561.333 438.318 561.333 442C561.333 445.682 558.349 448.667 554.667 448.667H551.333"
                stroke="#E1E1E1" stroke-width="3.33333" />
        </g>
        <g clip-path="url(#clip14_50_200)">
            <path
                d="M1149.33 313.333H1172.67M1161 313.333V296.667M1161 296.667C1168.36 296.667 1174.33 290.697 1174.33 283.333V270C1174.33 268.159 1172.84 266.667 1171 266.667H1151C1149.16 266.667 1147.67 268.159 1147.67 270V283.333C1147.67 290.697 1153.64 296.667 1161 296.667ZM1147.67 273.333H1144.33C1140.65 273.333 1137.67 276.318 1137.67 280C1137.67 283.682 1140.65 286.667 1144.33 286.667H1147.67M1174.33 273.333H1177.67C1181.35 273.333 1184.33 276.318 1184.33 280C1184.33 283.682 1181.35 286.667 1177.67 286.667H1174.33"
                stroke="#E1E1E1" stroke-width="3.33333" />
        </g>
        <path
            d="M525.903 581.339C521.449 581.339 517.839 584.949 517.839 589.403C517.839 593.857 521.449 597.468 525.903 597.468C529.514 597.468 532.571 595.094 533.599 591.823H527.516C526.18 591.823 525.097 590.739 525.097 589.403C525.097 588.067 526.18 586.984 527.516 586.984H537.42C538.552 581.014 543.797 576.5 550.097 576.5C557.223 576.5 563 582.277 563 589.403C563 596.529 557.223 602.307 550.097 602.307C544.553 602.307 539.826 598.811 538 593.903C536.174 598.811 531.447 602.307 525.903 602.307C518.777 602.307 513 596.529 513 589.403C513 582.277 518.777 576.5 525.903 576.5C528.458 576.5 530.846 577.245 532.853 578.53C533.978 579.25 534.306 580.747 533.586 581.872C532.865 582.997 531.369 583.325 530.244 582.605C528.992 581.804 527.506 581.339 525.903 581.339ZM550.097 581.339C545.643 581.339 542.032 584.949 542.032 589.403C542.032 593.857 545.643 597.468 550.097 597.468C554.551 597.468 558.161 593.857 558.161 589.403C558.161 584.949 554.551 581.339 550.097 581.339Z"
            fill="#E1E1E1" />
        <path d="M664.312 664.812H623.688V699.188H664.312V664.812Z" stroke="#E1E1E1" stroke-width="3.125"
            stroke-miterlimit="10" stroke-linecap="round" stroke-linejoin="round" />
        <circle cx="639.312" cy="669.5" r="1.5625" fill="#E1E1E1" />
        <circle cx="634.625" cy="669.5" r="1.5625" fill="#E1E1E1" />
        <circle cx="629.938" cy="669.5" r="1.5625" fill="#E1E1E1" />
        <path d="M623.688 674.188H664.312" stroke="#E1E1E1" stroke-width="3.125" stroke-miterlimit="10"
            stroke-linecap="round" stroke-linejoin="round" />
        <path
            d="M438.625 689.797H407.375C406.297 689.797 405.422 690.672 405.422 691.75C405.422 692.828 406.297 693.703 407.375 693.703H438.625C439.703 693.703 440.578 692.828 440.578 691.75C440.578 690.672 439.703 689.797 438.625 689.797ZM441.75 652.297H404.25C401.447 652.3 399.175 654.572 399.172 657.375V682.375C399.175 685.178 401.447 687.45 404.25 687.453H441.75C444.553 687.452 446.827 685.178 446.828 682.375V657.375C446.825 654.572 444.553 652.3 441.75 652.297ZM442.922 682.375C442.922 683.022 442.397 683.547 441.75 683.547H404.25C403.603 683.547 403.078 683.022 403.078 682.375V657.375C403.08 656.728 403.603 656.205 404.25 656.203H441.75C442.397 656.203 442.922 656.728 442.922 657.375V682.375Z"
            fill="#E1E1E1" />
        <path d="M658.583 370.333V350.542C658.583 348.25 656.708 346.375 654.417 346.375H645.042" stroke="#E1E1E1"
            stroke-width="3.125" stroke-linecap="round" stroke-linejoin="round" />
        <path d="M650.25 341.167L644 346.375L650.25 351.583" stroke="#E1E1E1" stroke-width="3.125"
            stroke-linecap="round" stroke-linejoin="round" />
        <path d="M629.417 355.75V370.333" stroke="#E1E1E1" stroke-width="3.125" stroke-linecap="round"
            stroke-linejoin="round" />
        <path
            d="M629.938 354.708C633.677 354.708 636.708 351.677 636.708 347.937C636.708 344.198 633.677 341.167 629.938 341.167C626.198 341.167 623.167 344.198 623.167 347.937C623.167 351.677 626.198 354.708 629.938 354.708Z"
            stroke="#E1E1E1" stroke-width="3.125" stroke-linecap="round" stroke-linejoin="round" />
        <path
            d="M629.417 382.833C632.869 382.833 635.667 380.035 635.667 376.583C635.667 373.131 632.869 370.333 629.417 370.333C625.965 370.333 623.167 373.131 623.167 376.583C623.167 380.035 625.965 382.833 629.417 382.833Z"
            stroke="#E1E1E1" stroke-width="3.125" stroke-linecap="round" stroke-linejoin="round" />
        <path
            d="M658.583 382.833C662.035 382.833 664.833 380.035 664.833 376.583C664.833 373.131 662.035 370.333 658.583 370.333C655.131 370.333 652.333 373.131 652.333 376.583C652.333 380.035 655.131 382.833 658.583 382.833Z"
            stroke="#E1E1E1" stroke-width="3.125" stroke-linecap="round" stroke-linejoin="round" />
        <path d="M1169.58 150.333V130.542C1169.58 128.25 1167.71 126.375 1165.42 126.375H1156.04" stroke="#E1E1E1"
            stroke-width="3.125" stroke-linecap="round" stroke-linejoin="round" />
        <path d="M1161.25 121.167L1155 126.375L1161.25 131.583" stroke="#E1E1E1" stroke-width="3.125"
            stroke-linecap="round" stroke-linejoin="round" />
        <path d="M1140.42 135.75V150.333" stroke="#E1E1E1" stroke-width="3.125" stroke-linecap="round"
            stroke-linejoin="round" />
        <path
            d="M1140.94 134.708C1144.68 134.708 1147.71 131.677 1147.71 127.938C1147.71 124.198 1144.68 121.167 1140.94 121.167C1137.2 121.167 1134.17 124.198 1134.17 127.938C1134.17 131.677 1137.2 134.708 1140.94 134.708Z"
            stroke="#E1E1E1" stroke-width="3.125" stroke-linecap="round" stroke-linejoin="round" />
        <path
            d="M1140.42 162.833C1143.87 162.833 1146.67 160.035 1146.67 156.583C1146.67 153.131 1143.87 150.333 1140.42 150.333C1136.96 150.333 1134.17 153.131 1134.17 156.583C1134.17 160.035 1136.96 162.833 1140.42 162.833Z"
            stroke="#E1E1E1" stroke-width="3.125" stroke-linecap="round" stroke-linejoin="round" />
        <path
            d="M1169.58 162.833C1173.04 162.833 1175.83 160.035 1175.83 156.583C1175.83 153.131 1173.04 150.333 1169.58 150.333C1166.13 150.333 1163.33 153.131 1163.33 156.583C1163.33 160.035 1166.13 162.833 1169.58 162.833Z"
            stroke="#E1E1E1" stroke-width="3.125" stroke-linecap="round" stroke-linejoin="round" />
        <g clip-path="url(#clip15_50_200)">
            <path
                d="M845.75 672.125C846.579 672.125 847.374 672.454 847.96 673.04C848.546 673.626 848.875 674.421 848.875 675.25V712.75C848.875 713.579 848.546 714.374 847.96 714.96C847.374 715.546 846.579 715.875 845.75 715.875H808.25C807.421 715.875 806.626 715.546 806.04 714.96C805.454 714.374 805.125 713.579 805.125 712.75V675.25C805.125 674.421 805.454 673.626 806.04 673.04C806.626 672.454 807.421 672.125 808.25 672.125H845.75ZM808.25 669C806.592 669 805.003 669.658 803.831 670.831C802.658 672.003 802 673.592 802 675.25V712.75C802 714.408 802.658 715.997 803.831 717.169C805.003 718.342 806.592 719 808.25 719H845.75C847.408 719 848.997 718.342 850.169 717.169C851.342 715.997 852 714.408 852 712.75V675.25C852 673.592 851.342 672.003 850.169 670.831C848.997 669.658 847.408 669 845.75 669H808.25Z"
                fill="#E1E1E1" />
            <path
                d="M823.419 683.519C823.564 683.664 823.68 683.836 823.759 684.026C823.837 684.216 823.878 684.419 823.878 684.625C823.878 684.831 823.837 685.034 823.759 685.224C823.68 685.414 823.564 685.586 823.419 685.731L815.147 694L823.419 702.269C823.712 702.562 823.877 702.96 823.877 703.375C823.877 703.79 823.712 704.188 823.419 704.481C823.125 704.775 822.728 704.939 822.313 704.939C821.898 704.939 821.5 704.775 821.206 704.481L811.831 695.106C811.686 694.961 811.57 694.789 811.492 694.599C811.413 694.409 811.372 694.206 811.372 694C811.372 693.794 811.413 693.591 811.492 693.401C811.57 693.211 811.686 693.039 811.831 692.894L821.206 683.519C821.352 683.373 821.524 683.258 821.714 683.179C821.904 683.1 822.107 683.06 822.313 683.06C822.518 683.06 822.722 683.1 822.911 683.179C823.101 683.258 823.274 683.373 823.419 683.519ZM830.581 683.519C830.436 683.664 830.32 683.836 830.242 684.026C830.163 684.216 830.122 684.419 830.122 684.625C830.122 684.831 830.163 685.034 830.242 685.224C830.32 685.414 830.436 685.586 830.581 685.731L838.853 694L830.581 702.269C830.288 702.562 830.123 702.96 830.123 703.375C830.123 703.79 830.288 704.188 830.581 704.481C830.875 704.775 831.273 704.939 831.688 704.939C832.103 704.939 832.5 704.775 832.794 704.481L842.169 695.106C842.314 694.961 842.43 694.789 842.509 694.599C842.587 694.409 842.628 694.206 842.628 694C842.628 693.794 842.587 693.591 842.509 693.401C842.43 693.211 842.314 693.039 842.169 692.894L832.794 683.519C832.649 683.373 832.476 683.258 832.286 683.179C832.097 683.1 831.893 683.06 831.688 683.06C831.482 683.06 831.279 683.1 831.089 683.179C830.899 683.258 830.726 683.373 830.581 683.519Z"
                fill="#E1E1E1" />
        </g>
        <g clip-path="url(#clip16_50_200)">
            <path
                d="M639 545.917L622.646 541.438L619.208 502.167H658.792L655.354 541.438L639 545.917ZM626.5 538.208L639 541.646L651.5 538.208L654.208 506.333H623.792L626.5 538.208Z"
                fill="#E1E1E1" />
            <path
                d="M628.583 511.542H649.417L647.542 533.729L638.896 536.542L630.146 534.354L629.208 526.854H633.896V530.604L638.896 531.542L643.479 530.604V524.979H629.208L628.896 520.292C629.324 519.901 629.879 519.679 630.458 519.667C637.646 519.667 643.479 520.292 643.479 520.292V516.542H629.208L628.583 511.542Z"
                fill="#E1E1E1" />
        </g>
        <path fill-rule="evenodd" clip-rule="evenodd"
            d="M743 577.575C737.444 577.575 733.973 580.335 732.583 585.858C734.667 583.098 737.098 582.063 739.875 582.752C741.46 583.146 742.594 584.29 743.846 585.554C745.89 587.615 748.254 590 753.417 590C758.973 590 762.444 587.24 763.833 581.717C761.75 584.477 759.321 585.513 756.542 584.823C754.956 584.429 753.823 583.285 752.569 582.021C750.527 579.958 748.165 577.575 743 577.575ZM732.583 590C727.027 590 723.556 592.76 722.167 598.283C724.25 595.521 726.681 594.488 729.458 595.177C731.044 595.571 732.177 596.715 733.431 597.979C735.473 600.04 737.838 602.425 743.002 602.425C748.558 602.425 752.029 599.665 753.419 594.142C751.335 596.902 748.904 597.938 746.127 597.248C744.542 596.854 743.408 595.71 742.156 594.446C740.11 592.385 737.746 590 732.583 590Z"
            fill="#E1E1E1" />
        <g clip-path="url(#clip17_50_200)">
            <path
                d="M720.666 13H737.333M722.333 -7H744C746.761 -7 749 -4.76143 749 -2C749 0.761434 746.761 3 744 3H729M729 -7V13M739 3H742.333C746.015 3 749 5.98477 749 9.66667C749 11.5077 750.492 13 752.333 13H757.333M739 -20.3333L743.481 -16.6318L749.124 -18.0226L751.555 -12.7435L757.243 -11.5481L757.142 -5.73697L761.748 -2.19217L759.137 3L761.748 8.19217L757.142 11.737L757.243 17.548L751.555 18.7433L749.124 24.0227L743.481 22.6317L739 26.3333L734.519 22.6317L728.876 24.0227L726.445 18.7433L720.757 17.548L720.857 11.737L716.251 8.19217L718.863 3L716.251 -2.19217L720.857 -5.73697L720.757 -11.5481L726.445 -12.7435L728.876 -18.0226L734.519 -16.6318L739 -20.3333Z"
                stroke="#E1E1E1" stroke-width="3.33333" stroke-linejoin="round" />
        </g>
        <g clip-path="url(#clip18_50_200)">
            <path fill-rule="evenodd" clip-rule="evenodd"
                d="M928.805 419.46C929.523 418.958 930.477 418.958 931.195 419.46L952.028 434.043C952.585 434.433 952.917 435.07 952.917 435.75V450.333C952.917 451.013 952.585 451.65 952.028 452.04L931.195 466.623C930.477 467.126 929.523 467.126 928.805 466.623L907.972 452.04C907.415 451.65 907.083 451.013 907.083 450.333V435.75C907.083 435.07 907.415 434.433 907.972 434.043L928.805 419.46ZM911.25 439.751V446.332L915.95 443.042L911.25 439.751ZM919.583 445.585L912.799 450.333L927.917 460.915V451.418L919.583 445.585ZM932.083 451.418V460.915L947.2 450.333L940.417 445.585L932.083 451.418ZM944.049 443.042L948.75 446.332V439.751L944.049 443.042ZM947.2 435.75L940.417 440.499L932.083 434.665V425.168L947.2 435.75ZM927.917 425.168V434.665L919.583 440.499L912.799 435.75L927.917 425.168ZM930 438.293L923.216 443.042L930 447.79L936.784 443.042L930 438.293Z"
                fill="#E1E1E1" />
        </g>
        <path
            d="M1062.09 381.236L1062.14 381.138C1062.19 381.064 1062.22 380.983 1062.25 380.894V380.886C1062.41 380.48 1062.44 380.048 1062.37 379.616V379.631C1062.28 379.175 1062.12 378.736 1061.88 378.338L1061.89 378.353L1050.81 358.863L1049.12 355.908L1036.37 378.353C1036.15 378.744 1036.01 379.167 1035.94 379.606V379.631C1035.85 380.136 1035.91 380.648 1036.11 381.12L1036.1 381.105C1036.13 381.178 1036.17 381.244 1036.21 381.316L1036.2 381.308C1036.54 381.878 1037.24 382.561 1038.81 382.561H1059.43C1059.75 382.561 1061.36 382.495 1062.1 381.234L1062.09 381.236ZM1049.12 361.827L1059.24 379.633H1039L1049.12 361.827ZM1070.47 378.356L1055.85 352.608C1055.7 352.331 1054.86 350.964 1053.39 350.964C1052.73 350.964 1051.79 351.248 1051.01 352.6L1049.12 355.913L1050.8 358.875L1053.41 354.261L1067.87 379.644H1062.37C1062.44 380.067 1062.4 380.498 1062.25 380.905V380.889C1062.22 380.978 1062.19 381.069 1062.14 381.15V381.142L1062.09 381.241C1061.35 382.502 1059.75 382.567 1059.44 382.567H1068.05C1068.36 382.567 1069.95 382.502 1070.69 381.241C1071.02 380.663 1071.25 379.703 1070.47 378.359V378.356ZM1036.22 381.309C1036.19 381.244 1036.15 381.18 1036.12 381.114V381.106C1035.92 380.634 1035.85 380.122 1035.94 379.617V379.631L1024.12 379.633L1041.69 348.733L1047.45 358.864L1049.12 355.909L1044.09 347.055C1043.95 346.803 1043.11 345.436 1041.64 345.436C1040.98 345.436 1040.03 345.72 1039.27 347.08L1021.48 378.355C1021.32 378.623 1020.59 380.039 1021.32 381.3C1021.66 381.878 1022.37 382.553 1023.93 382.553H1038.82C1037.27 382.553 1036.55 381.886 1036.22 381.3L1036.22 381.309Z"
            fill="#E1E1E1" />
        <path
            d="M1038 661.25H1031.75C1028.3 661.25 1025.5 664.048 1025.5 667.5C1025.5 670.952 1028.3 673.75 1031.75 673.75M1038 661.25V673.75M1038 661.25H1044.25C1047.7 661.25 1050.5 664.048 1050.5 667.5C1050.5 670.952 1047.7 673.75 1044.25 673.75M1031.75 673.75H1038M1031.75 673.75C1028.3 673.75 1025.5 676.548 1025.5 680C1025.5 683.452 1028.3 686.25 1031.75 686.25M1038 673.75H1044.25M1038 673.75V686.25M1044.25 673.75C1047.7 673.75 1050.5 676.548 1050.5 680C1050.5 683.452 1047.7 686.25 1044.25 686.25C1040.8 686.25 1038 683.452 1038 680C1038 676.548 1040.8 673.75 1044.25 673.75ZM1038 686.25H1031.75M1038 686.25V692.5C1038 695.952 1035.2 698.75 1031.75 698.75C1028.3 698.75 1025.5 695.952 1025.5 692.5C1025.5 689.048 1028.3 686.25 1031.75 686.25"
            stroke="#E1E1E1" stroke-width="4.16667" stroke-linecap="round" stroke-linejoin="round" />
        <g clip-path="url(#clip19_50_200)">
            <path
                d="M831 87.3333C818.113 87.3333 807.667 76.8867 807.667 64C807.667 51.1134 818.113 40.6667 831 40.6667C843.887 40.6667 854.333 51.1134 854.333 64C854.333 76.8867 843.887 87.3333 831 87.3333ZM831 87.3333V70.6667H826C821.398 70.6667 817.667 66.9357 817.667 62.3333C817.667 57.731 821.398 54 826 54H831.646C837.829 54 842.935 58.8301 843.278 65.0034L844.333 84M829.333 70.6667H830.607C832.891 70.6667 834.979 69.3762 836 67.3333M819.333 60.6667H822.667M826 60.6667H829.333"
                stroke="#E1E1E1" stroke-width="3.33333" />
        </g>
        <g clip-path="url(#clip20_50_200)">
            <path
                d="M1028 517L1029.35 516.024C1028.93 515.438 1028.18 515.192 1027.49 515.414C1026.8 515.637 1026.33 516.277 1026.33 517H1028ZM1038 548.667C1026.03 548.667 1016.33 538.966 1016.33 527H1013C1013 540.807 1024.19 552 1038 552V548.667ZM1059.67 527C1059.67 538.966 1049.97 548.667 1038 548.667V552C1051.81 552 1063 540.807 1063 527H1059.67ZM1038 505.333C1049.97 505.333 1059.67 515.034 1059.67 527H1063C1063 513.193 1051.81 502 1038 502V505.333ZM1038 502C1024.19 502 1013 513.193 1013 527H1016.33C1016.33 515.034 1026.03 505.333 1038 505.333V502ZM1029.67 542V517H1026.33V542H1029.67ZM1026.65 517.976L1048.32 547.976L1051.02 546.024L1029.35 516.024L1026.65 517.976ZM1046.33 515.333V535.333H1049.67V515.333H1046.33Z"
                fill="#E1E1E1" />
        </g>
        <path
            d="M920.5 286.083C921.646 286.083 922.583 285.146 922.583 284C922.583 282.854 921.646 281.917 920.5 281.917C919.354 281.917 918.417 282.854 918.417 284C918.417 285.146 919.354 286.083 920.5 286.083Z"
            stroke="#E1E1E1" stroke-width="4.16667" />
        <path
            d="M920.5 273.583C921.646 273.583 922.583 272.646 922.583 271.5C922.583 270.354 921.646 269.417 920.5 269.417C919.354 269.417 918.417 270.354 918.417 271.5C918.417 272.646 919.354 273.583 920.5 273.583Z"
            stroke="#E1E1E1" stroke-width="4.16667" />
        <path
            d="M920.5 298.583C921.646 298.583 922.583 297.646 922.583 296.5C922.583 295.354 921.646 294.417 920.5 294.417C919.354 294.417 918.417 295.354 918.417 296.5C918.417 297.646 919.354 298.583 920.5 298.583Z"
            stroke="#E1E1E1" stroke-width="4.16667" />
        <path
            d="M933 286.083C934.146 286.083 935.083 285.146 935.083 284C935.083 282.854 934.146 281.917 933 281.917C931.854 281.917 930.917 282.854 930.917 284C930.917 285.146 931.854 286.083 933 286.083Z"
            stroke="#E1E1E1" stroke-width="4.16667" />
        <path
            d="M933 273.583C934.146 273.583 935.083 272.646 935.083 271.5C935.083 270.354 934.146 269.417 933 269.417C931.854 269.417 930.917 270.354 930.917 271.5C930.917 272.646 931.854 273.583 933 273.583Z"
            stroke="#E1E1E1" stroke-width="4.16667" />
        <path
            d="M933 298.583C934.146 298.583 935.083 297.646 935.083 296.5C935.083 295.354 934.146 294.417 933 294.417C931.854 294.417 930.917 295.354 930.917 296.5C930.917 297.646 931.854 298.583 933 298.583Z"
            stroke="#E1E1E1" stroke-width="4.16667" />
        <path
            d="M945.5 286.083C946.646 286.083 947.583 285.146 947.583 284C947.583 282.854 946.646 281.917 945.5 281.917C944.354 281.917 943.417 282.854 943.417 284C943.417 285.146 944.354 286.083 945.5 286.083Z"
            stroke="#E1E1E1" stroke-width="4.16667" />
        <path
            d="M945.5 273.583C946.646 273.583 947.583 272.646 947.583 271.5C947.583 270.354 946.646 269.417 945.5 269.417C944.354 269.417 943.417 270.354 943.417 271.5C943.417 272.646 944.354 273.583 945.5 273.583Z"
            stroke="#E1E1E1" stroke-width="4.16667" />
        <path
            d="M945.5 298.583C946.646 298.583 947.583 297.646 947.583 296.5C947.583 295.354 946.646 294.417 945.5 294.417C944.354 294.417 943.417 295.354 943.417 296.5C943.417 297.646 944.354 298.583 945.5 298.583Z"
            stroke="#E1E1E1" stroke-width="4.16667" />
        <path d="M914.333 134.333L936 157.667L957.667 134.333M914.333 116L936 139.333L957.667 116" stroke="#E1E1E1"
            stroke-width="3.33333" stroke-linecap="square" />
        <path
            d="M1022.67 66L1021.18 65.2546C1020.94 65.7239 1020.94 66.2761 1021.18 66.7454L1022.67 66ZM1032.67 46V44.3333C1032.04 44.3333 1031.46 44.69 1031.18 45.2546L1032.67 46ZM1059.33 46L1060.82 45.2546C1060.54 44.69 1059.96 44.3333 1059.33 44.3333V46ZM1069.33 66L1070.82 66.7454C1071.06 66.2761 1071.06 65.7239 1070.82 65.2546L1069.33 66ZM1059.33 86V87.6667C1059.96 87.6667 1060.54 87.31 1060.82 86.7453L1059.33 86ZM1032.67 86L1031.18 86.7453C1031.46 87.31 1032.04 87.6667 1032.67 87.6667V86ZM1046 54.3333L1046.92 52.9466L1046 52.3302L1045.08 52.9466L1046 54.3333ZM1036 61L1035.08 59.6132L1034.33 60.108V61H1036ZM1036 71H1034.33V71.892L1035.08 72.3868L1036 71ZM1046 77.6667L1045.08 79.0533L1046 79.6697L1046.92 79.0533L1046 77.6667ZM1056 71L1056.92 72.3868L1057.67 71.892V71H1056ZM1056 61H1057.67V60.108L1056.92 59.6132L1056 61ZM1024.16 66.7454L1034.16 46.7454L1031.18 45.2546L1021.18 65.2546L1024.16 66.7454ZM1032.67 47.6667H1059.33V44.3333H1032.67V47.6667ZM1057.84 46.7454L1067.84 66.7454L1070.82 65.2546L1060.82 45.2546L1057.84 46.7454ZM1067.84 65.2546L1057.84 85.2547L1060.82 86.7453L1070.82 66.7454L1067.84 65.2546ZM1059.33 84.3333H1032.67V87.6667H1059.33V84.3333ZM1034.16 85.2547L1024.16 65.2546L1021.18 66.7454L1031.18 86.7453L1034.16 85.2547ZM1045.08 52.9466L1035.08 59.6132L1036.92 62.3868L1046.92 55.7201L1045.08 52.9466ZM1034.33 61V71H1037.67V61H1034.33ZM1035.08 72.3868L1045.08 79.0533L1046.92 76.28L1036.92 69.6132L1035.08 72.3868ZM1046.92 79.0533L1056.92 72.3868L1055.08 69.6132L1045.08 76.28L1046.92 79.0533ZM1057.67 71V61H1054.33V71H1057.67ZM1056.92 59.6132L1046.92 52.9466L1045.08 55.7201L1055.08 62.3868L1056.92 59.6132Z"
            fill="#E1E1E1" />
        <path
            d="M1033 190.333V189C1032.26 189 1031.67 189.597 1031.67 190.333H1033ZM1065 227.667V229C1065.45 229 1065.88 228.77 1066.12 228.389C1066.37 228.007 1066.4 227.528 1066.21 227.115L1065 227.667ZM1058.37 213.07L1057.77 211.878C1057.13 212.199 1056.85 212.969 1057.15 213.622L1058.37 213.07ZM1031.67 190.333V222.333H1034.33V190.333H1031.67ZM1038.33 229H1065V226.333H1038.33V229ZM1066.21 227.115L1059.58 212.518L1057.15 213.622L1063.79 228.218L1066.21 227.115ZM1033 191.667H1053V189H1033V191.667ZM1063.67 202.333C1063.67 206.508 1061.27 210.125 1057.77 211.878L1058.96 214.262C1063.33 212.075 1066.33 207.556 1066.33 202.333H1063.67ZM1053 191.667C1058.89 191.667 1063.67 196.442 1063.67 202.333H1066.33C1066.33 194.97 1060.36 189 1053 189V191.667ZM1031.67 222.333C1031.67 226.015 1034.65 229 1038.33 229V226.333C1036.12 226.333 1034.33 224.542 1034.33 222.333H1031.67ZM1035.53 225.596L1049.82 197.011L1047.43 195.818L1033.14 224.404L1035.53 225.596ZM1049.82 197.011C1051.15 194.341 1053.91 192.741 1056.82 192.83L1056.9 190.165C1052.96 190.044 1049.24 192.207 1047.43 195.818L1049.82 197.011ZM1042.14 228.353L1042.85 227.173L1040.56 225.801L1039.86 226.981L1042.14 228.353ZM1042.85 227.173C1047.66 219.155 1053.18 211.582 1059.34 204.545L1057.33 202.789C1051.07 209.945 1045.46 217.647 1040.56 225.801L1042.85 227.173ZM1051.13 198.266L1052.35 201.924L1054.88 201.08L1053.66 197.423L1051.13 198.266ZM1060.84 200.293L1059.6 196.578L1057.07 197.422L1058.31 201.137L1060.84 200.293ZM1056.85 190.333C1054.83 190.333 1052.95 191.34 1051.83 193.017L1054.05 194.496C1054.67 193.561 1055.72 193 1056.85 193V190.333ZM1056.31 205.422C1059.29 206.017 1061.8 203.174 1060.84 200.293L1058.31 201.137C1058.62 202.075 1057.8 203.001 1056.83 202.807L1056.31 205.422ZM1052.35 201.924C1052.94 203.716 1054.46 205.051 1056.31 205.422L1056.83 202.807C1055.92 202.624 1055.17 201.965 1054.88 201.08L1052.35 201.924ZM1053.66 197.423C1053.33 196.439 1053.47 195.359 1054.05 194.496L1051.83 193.017C1050.8 194.565 1050.54 196.502 1051.13 198.266L1053.66 197.423ZM1056.82 192.83C1056.67 192.826 1056.41 192.785 1056.15 192.587C1055.87 192.375 1055.62 191.988 1055.65 191.494C1055.72 190.47 1056.67 190.333 1056.85 190.333V193C1057.2 193 1058.24 192.781 1058.31 191.674C1058.35 191.139 1058.08 190.709 1057.76 190.465C1057.46 190.234 1057.13 190.172 1056.9 190.165L1056.82 192.83Z"
            fill="#E1E1E1" />
        <g clip-path="url(#clip21_50_200)">
            <path
                d="M1178.75 452.608C1178.75 452.608 1172.54 469.345 1151.17 465.449C1150.84 465.386 1150.51 465.27 1150.19 465.171C1150.11 465.148 1150.03 465.124 1149.96 465.102C1149.64 465.002 1149.32 464.9 1149 464.79C1148.97 464.777 1148.93 464.766 1148.9 464.753C1148.61 464.651 1148.32 464.544 1148.04 464.436C1147.97 464.407 1147.89 464.379 1147.82 464.349C1147.52 464.229 1147.21 464.103 1146.91 463.972C1146.86 463.948 1146.81 463.923 1146.75 463.899C1146.49 463.782 1146.23 463.661 1145.97 463.539C1145.91 463.505 1145.84 463.474 1145.77 463.442C1145.73 463.424 1145.7 463.405 1145.66 463.387C1145.49 463.304 1145.33 463.218 1145.17 463.133C1145.04 463.068 1144.91 463.004 1144.79 462.937C1144.56 462.811 1144.33 462.683 1144.1 462.553C1144.02 462.505 1143.93 462.458 1143.85 462.41C1143.54 462.229 1143.24 462.041 1142.94 461.851C1142.85 461.796 1142.77 461.739 1142.69 461.683C1142.49 461.556 1142.29 461.429 1142.1 461.297C1142.08 461.283 1142.06 461.268 1142.04 461.254C1141.97 461.204 1141.9 461.152 1141.82 461.099C1141.62 460.958 1141.42 460.814 1141.22 460.668C1141.13 460.596 1141.03 460.523 1140.94 460.45C1140.76 460.314 1140.58 460.173 1140.4 460.032C1140.31 459.962 1140.22 459.892 1140.14 459.82C1139.92 459.642 1139.7 459.461 1139.49 459.278C1139.45 459.244 1139.41 459.209 1139.37 459.173C1139.37 459.171 1139.36 459.168 1139.36 459.164C1139.12 458.955 1138.89 458.74 1138.65 458.521C1138.58 458.456 1138.51 458.388 1138.44 458.32C1138.27 458.153 1138.1 457.985 1137.93 457.815C1137.86 457.746 1137.79 457.676 1137.72 457.606C1137.5 457.381 1137.29 457.156 1137.07 456.925C1137.07 456.915 1137.06 456.909 1137.05 456.899C1137.05 456.895 1137.04 456.889 1137.04 456.885C1136.82 456.647 1136.61 456.403 1136.4 456.159C1136.34 456.091 1136.28 456.021 1136.23 455.951C1136.07 455.765 1135.92 455.579 1135.77 455.39C1135.71 455.312 1135.65 455.233 1135.59 455.154C1135.42 454.937 1135.25 454.719 1135.09 454.498C1135.06 454.456 1135.03 454.416 1135 454.375C1134.99 454.368 1134.99 454.361 1134.99 454.354C1134.8 454.097 1134.62 453.835 1134.44 453.572C1134.39 453.492 1134.34 453.409 1134.28 453.326C1134.16 453.132 1134.03 452.938 1133.91 452.742C1133.85 452.641 1133.79 452.54 1133.73 452.438C1133.62 452.255 1133.51 452.071 1133.4 451.886C1133.34 451.781 1133.29 451.679 1133.23 451.571C1133.2 451.515 1133.16 451.456 1133.13 451.396C1133.07 451.297 1133.03 451.194 1132.97 451.093C1132.89 450.934 1132.8 450.774 1132.72 450.613C1129.35 443.865 1128.8 435.604 1133.22 429.253L1136.67 424.879C1132.78 432.399 1134.52 441.557 1139.39 448.196C1139.57 448.437 1139.75 448.676 1139.93 448.914C1139.99 448.986 1140.05 449.058 1140.1 449.127C1140.26 449.322 1140.41 449.515 1140.57 449.705C1140.63 449.772 1140.68 449.838 1140.74 449.907C1140.95 450.156 1141.17 450.404 1141.39 450.646C1141.4 450.657 1141.41 450.668 1141.42 450.679C1141.63 450.908 1141.84 451.134 1142.06 451.356C1142.13 451.424 1142.2 451.492 1142.27 451.56C1142.44 451.734 1142.61 451.903 1142.79 452.071C1142.85 452.138 1142.92 452.202 1142.99 452.268C1143.23 452.491 1143.47 452.712 1143.72 452.928C1143.74 452.951 1143.77 452.971 1143.79 452.992C1144.02 453.19 1144.25 453.382 1144.48 453.574C1144.56 453.64 1144.65 453.706 1144.73 453.772C1144.91 453.92 1145.1 454.063 1145.29 454.205C1145.37 454.274 1145.47 454.343 1145.56 454.411C1145.76 454.562 1145.97 454.709 1146.17 454.856C1146.24 454.903 1146.31 454.955 1146.38 455.003C1146.6 455.15 1146.81 455.294 1147.03 455.435C1147.11 455.489 1147.19 455.546 1147.28 455.599C1147.58 455.79 1147.88 455.977 1148.19 456.159C1148.27 456.204 1148.35 456.247 1148.43 456.291C1148.66 456.425 1148.89 456.557 1149.13 456.684C1149.26 456.755 1149.39 456.82 1149.52 456.889C1149.71 456.989 1149.91 457.09 1150.1 457.186C1150.18 457.222 1150.25 457.257 1150.32 457.291C1150.57 457.412 1150.83 457.528 1151.08 457.643C1151.14 457.669 1151.2 457.696 1151.26 457.722C1151.56 457.852 1151.85 457.976 1152.16 458.095C1152.23 458.126 1152.31 458.156 1152.39 458.187C1152.66 458.293 1152.94 458.396 1153.22 458.495C1153.26 458.51 1153.31 458.526 1153.35 458.542C1153.66 458.649 1153.98 458.751 1154.29 458.848C1154.37 458.873 1154.45 458.897 1154.54 458.922C1154.86 459.017 1155.18 459.121 1155.51 459.196C1164.28 461.192 1173.53 459.4 1178.75 452.608ZM1147.82 441.879C1148.3 442.565 1148.83 443.381 1149.46 443.933C1149.69 444.186 1149.93 444.434 1150.18 444.677C1150.24 444.74 1150.3 444.801 1150.37 444.863C1150.61 445.095 1150.85 445.322 1151.1 445.544C1151.11 445.551 1151.12 445.562 1151.13 445.569C1151.13 445.573 1151.13 445.573 1151.14 445.577C1151.41 445.82 1151.7 446.054 1151.99 446.284C1152.06 446.334 1152.12 446.385 1152.19 446.436C1152.48 446.659 1152.78 446.879 1153.08 447.089C1153.09 447.095 1153.1 447.102 1153.11 447.109C1153.24 447.202 1153.38 447.289 1153.52 447.378C1153.58 447.42 1153.64 447.466 1153.71 447.506C1153.93 447.646 1154.15 447.782 1154.37 447.913C1154.4 447.932 1154.43 447.948 1154.47 447.967C1154.66 448.078 1154.86 448.188 1155.05 448.294C1155.12 448.333 1155.19 448.367 1155.26 448.403C1155.4 448.474 1155.53 448.546 1155.67 448.615C1155.69 448.625 1155.71 448.635 1155.73 448.643C1156.01 448.782 1156.3 448.916 1156.59 449.042C1156.65 449.069 1156.71 449.093 1156.78 449.12C1157.01 449.218 1157.24 449.314 1157.48 449.404C1157.58 449.442 1157.68 449.478 1157.78 449.514C1157.99 449.594 1158.21 449.666 1158.42 449.738C1158.52 449.77 1158.62 449.802 1158.71 449.832C1159.02 449.927 1159.32 450.048 1159.65 450.101C1176.14 452.834 1179.95 440.132 1179.95 440.132C1176.52 445.077 1169.87 447.436 1162.77 445.595C1162.46 445.512 1162.15 445.421 1161.84 445.324C1161.74 445.296 1161.65 445.265 1161.56 445.234C1161.34 445.162 1161.12 445.087 1160.9 445.008C1160.81 444.972 1160.71 444.936 1160.61 444.898C1160.37 444.807 1160.14 444.713 1159.91 444.615C1159.84 444.587 1159.78 444.563 1159.72 444.535C1159.43 444.408 1159.14 444.275 1158.86 444.135C1158.71 444.064 1158.57 443.988 1158.42 443.915C1158.34 443.872 1158.26 443.829 1158.18 443.787C1157.99 443.687 1157.81 443.583 1157.63 443.479C1157.59 443.454 1157.54 443.431 1157.5 443.405C1157.28 443.274 1157.06 443.139 1156.84 443.001C1156.77 442.958 1156.71 442.912 1156.64 442.868C1156.49 442.775 1156.35 442.68 1156.21 442.584C1155.91 442.375 1155.61 442.155 1155.32 441.932C1155.25 441.879 1155.18 441.827 1155.12 441.774C1152.01 439.322 1149.55 435.971 1148.38 432.172C1147.15 428.231 1147.42 423.808 1149.54 420.218L1146.93 423.903C1143.74 428.502 1143.91 434.657 1146.4 439.52C1146.82 440.335 1147.29 441.126 1147.82 441.879ZM1165.21 436.19C1165.34 436.241 1165.48 436.286 1165.61 436.332C1165.67 436.351 1165.73 436.372 1165.8 436.389C1165.99 436.451 1166.18 436.521 1166.38 436.559C1175.49 438.319 1177.96 431.884 1178.62 430.938C1176.46 434.054 1172.82 434.802 1168.36 433.719C1168 433.633 1167.62 433.505 1167.28 433.385C1166.84 433.23 1166.41 433.053 1165.99 432.852C1165.2 432.472 1164.45 432.01 1163.75 431.481C1159.75 428.451 1157.27 422.67 1159.88 417.963L1158.47 419.906C1156.58 422.678 1156.4 426.121 1157.71 429.183C1159.08 432.432 1161.91 434.982 1165.21 436.19Z"
                fill="#E1E1E1" />
        </g>
        <path
            d="M1138.33 608.333L1168.33 581.667L1171.67 611.667L1155 618.333L1138.33 608.333ZM1138.33 608.333L1155 578.333L1161.67 588.333M1138.33 608.333L1141.67 571.667L1151.67 581.667"
            stroke="#E1E1E1" stroke-width="3.33333" stroke-linejoin="round" />
    </g>
    <defs>
        <clipPath id="clip0_50_200">
            <rect width="1180" height="707" fill="white" />
        </clipPath>
        <clipPath id="clip1_50_200">
            <rect width="50" height="50" fill="white" transform="translate(1126 8)" />
        </clipPath>
        <clipPath id="clip2_50_200">
            <rect width="50" height="50" fill="white" transform="translate(139.985 166.086) rotate(-160)" />
        </clipPath>
        <clipPath id="clip3_50_200">
            <rect width="50" height="50" fill="white" transform="translate(23 167)" />
        </clipPath>
        <clipPath id="clip4_50_200">
            <rect width="50" height="50" fill="white" transform="translate(191 40)" />
        </clipPath>
        <clipPath id="clip5_50_200">
            <rect width="50" height="50" fill="white" transform="translate(299 426)" />
        </clipPath>
        <clipPath id="clip6_50_200">
            <rect width="50" height="50" fill="white" transform="translate(194 339)" />
        </clipPath>
        <clipPath id="clip7_50_200">
            <rect width="50" height="50" fill="white" transform="translate(614 39)" />
        </clipPath>
        <clipPath id="clip8_50_200">
            <rect width="50" height="50" fill="white" transform="translate(196 669)" />
        </clipPath>
        <clipPath id="clip9_50_200">
            <rect width="50" height="50" fill="white" transform="translate(28 487)" />
        </clipPath>
        <clipPath id="clip10_50_200">
            <rect width="50" height="50" fill="white" transform="translate(394 189)" />
        </clipPath>
        <clipPath id="clip11_50_200">
            <rect width="50" height="50" fill="white" transform="translate(908 565)" />
        </clipPath>
        <clipPath id="clip12_50_200">
            <rect width="50" height="50" fill="white" transform="translate(513 270)" />
        </clipPath>
        <clipPath id="clip13_50_200">
            <rect width="50" height="50" fill="white" transform="translate(513 427)" />
        </clipPath>
        <clipPath id="clip14_50_200">
            <rect width="50" height="50" fill="white" transform="translate(1136 265)" />
        </clipPath>
        <clipPath id="clip15_50_200">
            <rect width="50" height="50" fill="white" transform="translate(802 669)" />
        </clipPath>
        <clipPath id="clip16_50_200">
            <rect width="50" height="50" fill="white" transform="translate(614 498)" />
        </clipPath>
        <clipPath id="clip17_50_200">
            <rect width="50" height="50" fill="white" transform="translate(714 -22)" />
        </clipPath>
        <clipPath id="clip18_50_200">
            <rect width="50" height="50" fill="white" transform="translate(905 417)" />
        </clipPath>
        <clipPath id="clip19_50_200">
            <rect width="50" height="50" fill="white" transform="translate(806 39)" />
        </clipPath>
        <clipPath id="clip20_50_200">
            <rect width="50" height="50" fill="white" transform="translate(1013 502)" />
        </clipPath>
        <clipPath id="clip21_50_200">
            <rect width="50" height="50" fill="white" transform="translate(1130 417)" />
        </clipPath>
    </defs>
</svg>