<svg width="1180" height="707" viewBox="0 0 1180 707" fill="none" xmlns="http://www.w3.org/2000/svg">
    <g opacity="0.75">
        <g clip-path="url(#clip0_136_317)">
            <line y1="24" x2="1180" y2="24" stroke="#E1E1E1" stroke-width="2" />
            <line y1="49" x2="1180" y2="49" stroke="#E1E1E1" stroke-width="2" />
            <line y1="74" x2="1180" y2="74" stroke="#E1E1E1" stroke-width="2" />
            <line y1="99" x2="1180" y2="99" stroke="#E1E1E1" stroke-width="2" />
            <line y1="124" x2="1180" y2="124" stroke="#E1E1E1" stroke-width="2" />
            <line y1="149" x2="1180" y2="149" stroke="#E1E1E1" stroke-width="2" />
            <line y1="174" x2="1180" y2="174" stroke="#E1E1E1" stroke-width="2" />
            <line y1="199" x2="1180" y2="199" stroke="#E1E1E1" stroke-width="2" />
            <line y1="224" x2="1180" y2="224" stroke="#E1E1E1" stroke-width="2" />
            <line y1="249" x2="1180" y2="249" stroke="#E1E1E1" stroke-width="2" />
            <line y1="274" x2="1180" y2="274" stroke="#E1E1E1" stroke-width="2" />
            <line y1="299" x2="1180" y2="299" stroke="#E1E1E1" stroke-width="2" />
            <line y1="324" x2="1180" y2="324" stroke="#E1E1E1" stroke-width="2" />
            <line y1="349" x2="1180" y2="349" stroke="#E1E1E1" stroke-width="2" />
            <line y1="374" x2="1180" y2="374" stroke="#E1E1E1" stroke-width="2" />
            <line y1="399" x2="1180" y2="399" stroke="#E1E1E1" stroke-width="2" />
            <line y1="424" x2="1180" y2="424" stroke="#E1E1E1" stroke-width="2" />
            <line y1="449" x2="1180" y2="449" stroke="#E1E1E1" stroke-width="2" />
            <line y1="474" x2="1180" y2="474" stroke="#E1E1E1" stroke-width="2" />
            <line y1="499" x2="1180" y2="499" stroke="#E1E1E1" stroke-width="2" />
            <line y1="524" x2="1180" y2="524" stroke="#E1E1E1" stroke-width="2" />
            <line y1="549" x2="1180" y2="549" stroke="#E1E1E1" stroke-width="2" />
            <line y1="574" x2="1180" y2="574" stroke="#E1E1E1" stroke-width="2" />
            <line y1="599" x2="1180" y2="599" stroke="#E1E1E1" stroke-width="2" />
            <line y1="624" x2="1180" y2="624" stroke="#E1E1E1" stroke-width="2" />
            <line y1="649" x2="1180" y2="649" stroke="#E1E1E1" stroke-width="2" />
            <line y1="674" x2="1180" y2="674" stroke="#E1E1E1" stroke-width="2" />
            <line y1="694" x2="1180" y2="694" stroke="#E1E1E1" stroke-width="2" />
            <line x1="1137.35" y1="1.67512e-06" x2="1137.35" y2="700.025" stroke="#E1E1E1" stroke-width="2" />
            <line x1="1093.31" y1="-8.71494e-06" x2="1093.31" y2="700.025" stroke="#E1E1E1" stroke-width="2" />
            <line x1="1049.26" y1="-6.99563e-06" x2="1049.26" y2="700.025" stroke="#E1E1E1" stroke-width="2" />
            <line x1="1005.22" x2="1005.22" y2="700.025" stroke="#E1E1E1" stroke-width="2" />
            <line x1="961.175" y1="1.89712e-06" x2="961.175" y2="700.025" stroke="#E1E1E1" stroke-width="2" />
            <line x1="917.13" y1="-9.33088e-07" x2="917.13" y2="700.025" stroke="#E1E1E1" stroke-width="2" />
            <line x1="873.085" y1="-3.59457e-06" x2="873.085" y2="700.025" stroke="#E1E1E1" stroke-width="2" />
            <line x1="829.041" y1="6.26427e-07" x2="829.041" y2="700.025" stroke="#E1E1E1" stroke-width="2" />
            <line x1="784.996" y1="-5.10081e-06" x2="784.996" y2="700.025" stroke="#E1E1E1" stroke-width="2" />
            <line x1="740.951" y1="-8.04433e-06" x2="740.951" y2="700.025" stroke="#E1E1E1" stroke-width="2" />
            <line x1="696.907" y1="-1.27556e-06" x2="696.907" y2="700.025" stroke="#E1E1E1" stroke-width="2" />
            <line x1="652.862" y1="9.61733e-07" x2="652.862" y2="700.025" stroke="#E1E1E1" stroke-width="2" />
            <line x1="608.817" y1="-1.98178e-06" x2="608.817" y2="700.025" stroke="#E1E1E1" stroke-width="2" />
            <line x1="564.773" y1="2.52125e-06" x2="564.773" y2="700.025" stroke="#E1E1E1" stroke-width="2" />
            <line x1="520.728" y1="-3.20599e-06" x2="520.728" y2="700.025" stroke="#E1E1E1" stroke-width="2" />
            <line x1="476.683" y1="-6.14951e-06" x2="476.683" y2="700.025" stroke="#E1E1E1" stroke-width="2" />
            <line x1="432.638" y1="-1.64648e-06" x2="432.638" y2="700.025" stroke="#E1E1E1" stroke-width="2" />
            <line x1="388.594" y1="-4.58999e-06" x2="388.594" y2="700.025" stroke="#E1E1E1" stroke-width="2" />
            <line x1="344.549" y1="-7.53351e-06" x2="344.549" y2="700.025" stroke="#E1E1E1" stroke-width="2" />
            <line x1="300.504" x2="300.504" y2="700.025" stroke="#E1E1E1" stroke-width="2" />
            <line x1="256.459" y1="8.06913e-08" x2="256.459" y2="700.025" stroke="#E1E1E1" stroke-width="2" />
            <line x1="212.415" y1="-5.64655e-06" x2="212.415" y2="700.025" stroke="#E1E1E1" stroke-width="2" />
            <line x1="168.37" y1="-1.14352e-06" x2="168.37" y2="700.025" stroke="#E1E1E1" stroke-width="2" />
            <line x1="124.325" y1="-4.08703e-06" x2="124.325" y2="700.025" stroke="#E1E1E1" stroke-width="2" />
            <line x1="80.2804" y1="-8.42241e-06" x2="80.2804" y2="700.025" stroke="#E1E1E1" stroke-width="2" />
            <line x1="36.2357" y1="-3.91938e-06" x2="36.2357" y2="700.025" stroke="#E1E1E1" stroke-width="2" />
            <line x1="1.00012" y1="1.07491e-06" x2="1.00012" y2="700.025" stroke="#E1E1E1" stroke-width="2" />
        </g>
        <rect x="1" y="1" width="1178" height="705" stroke="#E1E1E1" stroke-width="2" />
    </g>
    <defs>
        <clipPath id="clip0_136_317">
            <rect width="1180" height="707" fill="white" />
        </clipPath>
    </defs>
</svg>