<svg
  width="500"
  height="200"
  viewBox="0 0 500 200"
  fill="none"
  xmlns="http://www.w3.org/2000/svg"
>
  <path
    d="M119.183 40.5771C141.67 39.691 185.607 41.5304 203.994 56.2803C209.15 60.4167 211.958 67.1811 212.186 73.8883C212.884 94.4479 204.311 121.524 190.892 137.074C177.834 152.205 155.933 155.99 137.079 157.098C136.93 157.11 136.779 157.115 136.629 157.12C115.8 157.925 87.7294 156.724 71.5777 141.698C54.9284 126.209 45.0477 88.3993 44.2401 66.3402C44.0646 61.5459 43.6335 55.8916 47.2114 52.137C55.3738 43.5707 105.943 40.8713 119.183 40.5771Z"
    fill="black"
  />
  <path
    d="M383.043 40.185C360.556 39.2989 316.618 41.1383 298.232 55.8882C293.075 60.0246 290.267 66.789 290.039 73.4962C289.342 94.0558 297.915 121.132 311.334 136.682C324.391 151.813 346.293 155.598 365.146 156.706C365.296 156.718 365.446 156.722 365.597 156.728C386.426 157.532 414.496 156.332 430.648 141.306C447.297 125.817 457.178 88.0072 457.986 65.9481C458.161 61.1538 458.592 55.4995 455.014 51.745C446.852 43.1786 396.283 40.4792 383.043 40.185Z"
    fill="black"
  />

  <path
    d="M24.3807 48.4021C27.7725 48.7625 31.2132 49.0584 32.4999 52.7673C32.0639 56.7127 29.3739 57.0717 25.9608 57.9822C16.7431 58.2653 13.4346 50.4587 24.3807 48.4021ZM30.9842 54.282C28.5079 53.4964 21.2718 53.9638 18.4217 54.114C22.4198 56.9444 26.5835 56.1802 31.1112 55.0906L30.9842 54.282ZM30.5487 51.6345C28.7934 50.0409 22.1843 50.797 19.8797 51.0984L19.3944 52.073C21.606 52.773 27.3943 52.3912 30.1483 52.3777L30.5487 51.6345Z"
    fill="black"
  />
  <path
    d="M477.381 48.4021C480.772 48.7625 484.213 49.0584 485.5 52.7673C485.064 56.7127 482.374 57.0717 478.961 57.9822C469.743 58.2653 466.435 50.4587 477.381 48.4021ZM483.984 54.282C481.508 53.4964 474.272 53.9638 471.422 54.114C475.42 56.9444 479.583 56.1802 484.111 55.0906L483.984 54.282ZM483.549 51.6345C481.793 50.0409 475.184 50.797 472.88 51.0984L472.394 52.073C474.606 52.773 480.394 52.3912 483.148 52.3777L483.549 51.6345Z"
    fill="black"
  />
</svg>



